<?xml version="1.0" encoding="utf-8"?>
<!-- Generator: Adobe Illustrator 19.2.1, SVG Export Plug-In . SVG Version: 6.00 Build 0)  -->
<svg version="1.1" id="Layer_1" xmlns="http://www.w3.org/2000/svg" xmlns:xlink="http://www.w3.org/1999/xlink" x="0px" y="0px"
	 viewBox="0 0 16 16" style="enable-background:new 0 0 16 16;" xml:space="preserve">
<g>
	<path d="M4.1,11.5V8c0-0.3-0.2-0.5-0.5-0.5S3.1,7.7,3.1,8v3.5c-0.7,0.2-1.3,0.9-1.3,1.7c0,1,0.8,1.8,1.8,1.8s1.8-0.8,1.8-1.8
		C5.4,12.4,4.8,11.7,4.1,11.5z M3.6,14c-0.4,0-0.8-0.4-0.8-0.8c0-0.4,0.4-0.8,0.8-0.8s0.8,0.4,0.8,0.8C4.4,13.7,4,14,3.6,14z"/>
	<path d="M12.9,11.5V8c0-0.3-0.2-0.5-0.5-0.5c-0.3,0-0.5,0.2-0.5,0.5v3.5c-0.7,0.2-1.3,0.9-1.3,1.7c0,1,0.8,1.8,1.8,1.8
		s1.8-0.8,1.8-1.8C14.2,12.4,13.6,11.7,12.9,11.5z M12.4,14c-0.4,0-0.8-0.4-0.8-0.8c0-0.4,0.4-0.8,0.8-0.8c0.4,0,0.8,0.4,0.8,0.8
		C13.2,13.7,12.8,14,12.4,14z"/>
	<path d="M8.5,9.5V8c0-0.3-0.2-0.5-0.5-0.5S7.5,7.7,7.5,8v1.5c-0.7,0.2-1.3,0.9-1.3,1.7s0.6,1.5,1.3,1.7v1.5C7.5,14.8,7.7,15,8,15
		s0.5-0.2,0.5-0.5V13c0.7-0.2,1.3-0.9,1.3-1.7S9.2,9.8,8.5,9.5z M8,12.1c-0.4,0-0.8-0.4-0.8-0.8c0-0.4,0.4-0.8,0.8-0.8
		s0.8,0.4,0.8,0.8C8.8,11.7,8.4,12.1,8,12.1z"/>
	<path d="M1.9,6.5H14c0.3,0,0.5-0.2,0.5-0.5V3c0-1.1-0.9-2-2-2H3.4c-1.1,0-2,0.9-2,2v3C1.4,6.3,1.6,6.5,1.9,6.5z M2.4,3
		c0-0.6,0.5-1,1-1h9.1c0.6,0,1,0.5,1,1v2.6H9.2c0-0.1-0.1-0.1-0.1-0.2l1.2-1.6c0.2-0.2,0.1-0.5-0.1-0.7C10,2.9,9.7,2.9,9.5,3.1
		L8.3,4.8c-0.1,0-0.2,0-0.3,0c-0.5,0-1,0.3-1.2,0.8H2.4V3z"/>
</g>
</svg>
