<?xml version="1.0" encoding="utf-8"?>
<!-- Generator: Adobe Illustrator 19.2.1, SVG Export Plug-In . SVG Version: 6.00 Build 0)  -->
<svg version="1.1" id="Layer_1" xmlns="http://www.w3.org/2000/svg" xmlns:xlink="http://www.w3.org/1999/xlink" x="0px" y="0px"
	 viewBox="0 0 60 60" style="enable-background:new 0 0 60 60;" xml:space="preserve">
<path d="M56.4,25.4H32V13.5h9.2v3.3c0,1.1,0.9,2,2,2c1.1,0,2-0.9,2-2v-3.3h3.3v-4H32V1h-4v8.6H11.5v4h3.3v3.3c0,1.1,0.9,2,2,2
	s2-0.9,2-2v-3.3H28v11.9H3.6v4h5.9v3.3c0,1.1,0.9,2,2,2s2-0.9,2-2v-3.3H28V59h4V29.3h14.5v3.3c0,1.1,0.9,2,2,2c1.1,0,2-0.9,2-2v-3.3
	h5.9V25.4z"/>
</svg>
