<?xml version="1.0" encoding="utf-8"?>
<!-- Generator: Adobe Illustrator 19.2.1, SVG Export Plug-In . SVG Version: 6.00 Build 0)  -->
<svg version="1.1" id="Layer_1" xmlns="http://www.w3.org/2000/svg" xmlns:xlink="http://www.w3.org/1999/xlink" x="0px" y="0px"
	 viewBox="0 0 32 32" style="enable-background:new 0 0 32 32;" xml:space="preserve">
<g>
	<path d="M30.3,8.1H1.7C1.3,8.1,1,8.5,1,8.9v20c0,0.4,0.3,0.7,0.7,0.7h28.6c0.4,0,0.7-0.3,0.7-0.7v-20C31,8.5,30.7,8.1,30.3,8.1z
		 M11.7,19.9H9.9v1.8c0,0.6-0.5,1.1-1.1,1.1c-0.6,0-1.1-0.5-1.1-1.1v-1.8H6c-0.6,0-1.1-0.5-1.1-1.1c0-0.6,0.5-1.1,1.1-1.1h1.8V16
		c0-0.6,0.5-1.1,1.1-1.1c0.6,0,1.1,0.5,1.1,1.1v1.8h1.8c0.6,0,1.1,0.5,1.1,1.1C12.8,19.4,12.3,19.9,11.7,19.9z M26,19.9h-5.7
		c-0.6,0-1.1-0.5-1.1-1.1c0-0.6,0.5-1.1,1.1-1.1H26c0.6,0,1.1,0.5,1.1,1.1C27.1,19.4,26.6,19.9,26,19.9z"/>
	<g>
		<path d="M8.9,2.4H4.6c-0.4,0-0.7,0.3-0.7,0.7V6c0,0.4,0.3,0.7,0.7,0.7h4.3c0.4,0,0.7-0.3,0.7-0.7V3.1C9.6,2.7,9.3,2.4,8.9,2.4z"/>
		<path d="M27.4,2.4h-4.3c-0.4,0-0.7,0.3-0.7,0.7V6c0,0.4,0.3,0.7,0.7,0.7h4.3c0.4,0,0.7-0.3,0.7-0.7V3.1
			C28.1,2.7,27.8,2.4,27.4,2.4z"/>
	</g>
</g>
</svg>
