<?xml version="1.0" encoding="utf-8"?>
<!-- Generator: Adobe Illustrator 19.2.1, SVG Export Plug-In . SVG Version: 6.00 Build 0)  -->
<svg version="1.1" id="Layer_1" xmlns="http://www.w3.org/2000/svg" xmlns:xlink="http://www.w3.org/1999/xlink" x="0px" y="0px"
	 viewBox="0 0 60 60" style="enable-background:new 0 0 60 60;" xml:space="preserve">
<g>
	<path d="M13.9,44.5V30c0-1.1-0.9-2-2-2s-2,0.9-2,2v14.5c-3.1,0.9-5.4,3.7-5.4,7.1c0,4.1,3.3,7.4,7.4,7.4s7.4-3.3,7.4-7.4
		C19.3,48.2,17,45.4,13.9,44.5z M11.9,55c-1.9,0-3.4-1.5-3.4-3.4s1.5-3.4,3.4-3.4s3.4,1.5,3.4,3.4S13.7,55,11.9,55z"/>
	<path d="M50.3,44.5V30c0-1.1-0.9-2-2-2c-1.1,0-2,0.9-2,2v14.5c-3.1,0.9-5.4,3.7-5.4,7.1c0,4.1,3.3,7.4,7.4,7.4s7.4-3.3,7.4-7.4
		C55.7,48.2,53.4,45.4,50.3,44.5z M48.3,55c-1.9,0-3.4-1.5-3.4-3.4s1.5-3.4,3.4-3.4s3.4,1.5,3.4,3.4S50.1,55,48.3,55z"/>
	<path d="M32.1,36.4V30c0-1.1-0.9-2-2-2c-1.1,0-2,0.9-2,2v6.4c-3.1,0.9-5.4,3.7-5.4,7.1s2.3,6.2,5.4,7.1V57c0,1.1,0.9,2,2,2
		c1.1,0,2-0.9,2-2v-6.4c3.1-0.9,5.4-3.7,5.4-7.1S35.2,37.3,32.1,36.4z M30.1,46.9c-1.9,0-3.4-1.5-3.4-3.4s1.5-3.4,3.4-3.4
		c1.9,0,3.4,1.5,3.4,3.4S31.9,46.9,30.1,46.9z"/>
	<path d="M4.9,23.9H55c1.1,0,2-0.9,2-2V9.3C57,4.7,53.3,1,48.7,1H11.2C6.6,1,2.9,4.7,2.9,9.3v12.6C2.9,23,3.8,23.9,4.9,23.9z
		 M6.9,9.3C6.9,7,8.8,5,11.2,5h37.5C51.1,5,53,7,53,9.3v10.6H35.1c-0.1-0.3-0.2-0.5-0.4-0.7l5.1-6.8c0.7-0.9,0.5-2.2-0.4-2.8
		c-0.9-0.7-2.2-0.5-2.8,0.4l-5.1,6.8c-0.4-0.1-0.9-0.2-1.4-0.2c-2.3,0-4.2,1.4-5,3.4H6.9V9.3z"/>
</g>
</svg>
