<?xml version="1.0" encoding="utf-8"?>
<!-- Generator: Adobe Illustrator 19.2.1, SVG Export Plug-In . SVG Version: 6.00 Build 0)  -->
<svg version="1.1" id="Layer_1" xmlns="http://www.w3.org/2000/svg" xmlns:xlink="http://www.w3.org/1999/xlink" x="0px" y="0px"
	 viewBox="0 0 16 16" style="enable-background:new 0 0 16 16;" xml:space="preserve">
<g>
	<polygon points="7.3,8 7.3,10.5 8,10.5 8,12 10,9.5 8.8,9.5 9.3,8 	"/>
	<path d="M8.7,2V1H7.3v1C4.3,2.4,2,4.9,2,8c0,3.1,2.3,5.6,5.3,6v1h1.3v-1c3-0.3,5.3-2.9,5.3-6C14,4.9,11.7,2.4,8.7,2z M5.1,4.8h5.8
		c0.3,0,0.6,0.3,0.6,0.6c0,0.3-0.3,0.6-0.6,0.6H5.1c-0.3,0-0.6-0.3-0.6-0.6C4.5,5.1,4.8,4.8,5.1,4.8z M8,12.7
		c-2.6,0-4.7-2.1-4.7-4.7c0-0.2,0-0.4,0.1-0.7h9.2c0,0.2,0.1,0.4,0.1,0.7C12.7,10.6,10.6,12.7,8,12.7z"/>
	<circle cx="5.8" cy="5.4" r="0.4"/>
	<circle cx="7.3" cy="5.4" r="0.4"/>
	<circle cx="8.8" cy="5.4" r="0.4"/>
	<circle cx="10.3" cy="5.4" r="0.4"/>
</g>
</svg>
