<?xml version="1.0" encoding="utf-8"?>
<!-- Generator: Adobe Illustrator 19.2.1, SVG Export Plug-In . SVG Version: 6.00 Build 0)  -->
<svg version="1.1" id="Layer_1" xmlns="http://www.w3.org/2000/svg" xmlns:xlink="http://www.w3.org/1999/xlink" x="0px" y="0px"
	 viewBox="0 0 24 24" style="enable-background:new 0 0 24 24;" xml:space="preserve">
<path d="M22,10.3h-9.3V5.8h3.5V7c0,0.4,0.3,0.8,0.8,0.8s0.8-0.3,0.8-0.8V5.8H19V4.3h-6.3V1h-1.5v3.3H5v1.5h1.3V7
	c0,0.4,0.3,0.8,0.8,0.8S7.8,7.4,7.8,7V5.8h3.5v4.5H2v1.5h2.3V13c0,0.4,0.3,0.8,0.8,0.8s0.8-0.3,0.8-0.8v-1.3h5.5V23h1.5V11.8h5.5V13
	c0,0.4,0.3,0.8,0.8,0.8s0.8-0.3,0.8-0.8v-1.3H22V10.3z"/>
</svg>
