<?xml version="1.0" encoding="utf-8"?>
<!-- Generator: Adobe Illustrator 19.2.1, SVG Export Plug-In . SVG Version: 6.00 Build 0)  -->
<svg version="1.1" id="Layer_1" xmlns="http://www.w3.org/2000/svg" xmlns:xlink="http://www.w3.org/1999/xlink" x="0px" y="0px"
	 viewBox="0 0 24 24" style="enable-background:new 0 0 24 24;" xml:space="preserve">
<g>
	<path d="M22,6.5H2C1.7,6.5,1.5,6.7,1.5,7v14c0,0.3,0.2,0.5,0.5,0.5h20c0.3,0,0.5-0.2,0.5-0.5V7C22.5,6.7,22.3,6.5,22,6.5z M9,14.8
		H7.8V16c0,0.4-0.3,0.8-0.8,0.8S6.3,16.4,6.3,16v-1.3H5c-0.4,0-0.8-0.3-0.8-0.8s0.3-0.8,0.8-0.8h1.3V12c0-0.4,0.3-0.8,0.8-0.8
		s0.8,0.3,0.8,0.8v1.3H9c0.4,0,0.8,0.3,0.8,0.8S9.4,14.8,9,14.8z M19,14.8h-4c-0.4,0-0.8-0.3-0.8-0.8s0.3-0.8,0.8-0.8h4
		c0.4,0,0.8,0.3,0.8,0.8S19.4,14.8,19,14.8z"/>
	<g>
		<path d="M7,2.5H4C3.7,2.5,3.5,2.7,3.5,3v2c0,0.3,0.2,0.5,0.5,0.5h3c0.3,0,0.5-0.2,0.5-0.5V3C7.5,2.7,7.3,2.5,7,2.5z"/>
		<path d="M20,2.5h-3c-0.3,0-0.5,0.2-0.5,0.5v2c0,0.3,0.2,0.5,0.5,0.5h3c0.3,0,0.5-0.2,0.5-0.5V3C20.5,2.7,20.3,2.5,20,2.5z"/>
	</g>
</g>
</svg>
