<?xml version="1.0" encoding="utf-8"?>
<!-- Generator: Adobe Illustrator 19.2.1, SVG Export Plug-In . SVG Version: 6.00 Build 0)  -->
<svg version="1.1" id="Layer_1" xmlns="http://www.w3.org/2000/svg" xmlns:xlink="http://www.w3.org/1999/xlink" x="0px" y="0px"
	 viewBox="0 0 16 16" style="enable-background:new 0 0 16 16;" xml:space="preserve">
<g>
	<path d="M14.7,4.3H1.3C1.1,4.3,1,4.5,1,4.7V14c0,0.2,0.1,0.3,0.3,0.3h13.3c0.2,0,0.3-0.1,0.3-0.3V4.7C15,4.5,14.9,4.3,14.7,4.3z
		 M6,9.8H5.2v0.8c0,0.3-0.2,0.5-0.5,0.5c-0.3,0-0.5-0.2-0.5-0.5V9.8H3.3c-0.3,0-0.5-0.2-0.5-0.5c0-0.3,0.2-0.5,0.5-0.5h0.8V8
		c0-0.3,0.2-0.5,0.5-0.5c0.3,0,0.5,0.2,0.5,0.5v0.8H6c0.3,0,0.5,0.2,0.5,0.5C6.5,9.6,6.3,9.8,6,9.8z M12.7,9.8H10
		c-0.3,0-0.5-0.2-0.5-0.5c0-0.3,0.2-0.5,0.5-0.5h2.7c0.3,0,0.5,0.2,0.5,0.5C13.2,9.6,12.9,9.8,12.7,9.8z"/>
	<g>
		<path d="M4.7,1.7h-2C2.5,1.7,2.3,1.8,2.3,2v1.3c0,0.2,0.1,0.3,0.3,0.3h2C4.9,3.7,5,3.5,5,3.3V2C5,1.8,4.9,1.7,4.7,1.7z"/>
		<path d="M13.3,1.7h-2C11.1,1.7,11,1.8,11,2v1.3c0,0.2,0.1,0.3,0.3,0.3h2c0.2,0,0.3-0.1,0.3-0.3V2C13.7,1.8,13.5,1.7,13.3,1.7z"/>
	</g>
</g>
</svg>
