<?xml version="1.0" encoding="utf-8"?>
<!-- Generator: Adobe Illustrator 19.2.1, SVG Export Plug-In . SVG Version: 6.00 Build 0)  -->
<svg version="1.1" id="Layer_1" xmlns="http://www.w3.org/2000/svg" xmlns:xlink="http://www.w3.org/1999/xlink" x="0px" y="0px"
	 viewBox="0 0 60 60" style="enable-background:new 0 0 60 60;" xml:space="preserve">
<path d="M59,30C59,14,46,1,30,1S1,14,1,30s13,29,29,29c1.2,0,2.4-0.1,3.6-0.2c0.1,0,0.1,0,0.2,0c0.3,0,0.6-0.1,0.8-0.2
	C48.4,56.4,59,44.4,59,30z M53.7,22.3L21.8,53.5c-1.6-0.5-3.1-1.2-4.5-2.1l34.4-33.7C52.5,19.2,53.2,20.7,53.7,22.3z M42.8,8.6
	L8.4,42.4c-0.8-1.4-1.5-3-2-4.6l32-31.3C39.9,7.1,41.4,7.8,42.8,8.6z M33.7,5.4L5.3,33.2C5.1,32.1,5,31.1,5,30
	c0-1.2,0.1-2.3,0.3-3.5L27,5.5c0.1-0.1,0.1-0.2,0.2-0.3C28.2,5.1,29.1,5,30,5C31.3,5,32.5,5.2,33.7,5.4z M19.1,7.6L8,18.3
	C10.4,13.7,14.3,9.9,19.1,7.6z M10.7,45.8L46.1,11c1.2,1,2.3,2.1,3.3,3.3L14,49.1C12.8,48.1,11.7,47,10.7,45.8z M26.4,54.7L54.8,27
	c0.1,1,0.2,2,0.2,3c0,1.3-0.1,2.5-0.3,3.7l-21.8,21C31.9,54.9,31,55,30,55C28.8,55,27.6,54.8,26.4,54.7z M41.4,52.2l10.4-10.1
	C49.4,46.4,45.8,49.9,41.4,52.2z"/>
</svg>
