<?xml version="1.0" encoding="utf-8"?>
<!-- Generator: Adobe Illustrator 19.2.1, SVG Export Plug-In . SVG Version: 6.00 Build 0)  -->
<svg version="1.1" id="Layer_1" xmlns="http://www.w3.org/2000/svg" xmlns:xlink="http://www.w3.org/1999/xlink" x="0px" y="0px"
	 viewBox="0 0 60 60" style="enable-background:new 0 0 60 60;" xml:space="preserve">
<g>
	<path d="M16.8,25.1c-3.3,0-6.1,2.2-6.9,5.3H1v4h8.9c0.9,3,3.6,5.3,6.9,5.3c4,0,7.3-3.3,7.3-7.3C24.1,28.3,20.8,25.1,16.8,25.1z
		 M16.8,35.6c-1.8,0-3.3-1.5-3.3-3.3c0-1.8,1.5-3.3,3.3-3.3s3.3,1.5,3.3,3.3C20.1,34.1,18.6,35.6,16.8,35.6z"/>
	<path d="M59,30.3h-8.9c-0.9-3-3.6-5.3-6.9-5.3c-1.5,0-2.9,0.5-4,1.2l0,0l-10.6-8.7l-2.5,3.1l10.5,8.6c-0.4,0.9-0.7,1.9-0.7,3
		c0,4,3.3,7.3,7.3,7.3c3.3,0,6.1-2.2,6.9-5.3H59V30.3z M43.2,35.6c-1.8,0-3.3-1.5-3.3-3.3c0-1.8,1.5-3.3,3.3-3.3
		c1.8,0,3.3,1.5,3.3,3.3C46.5,34.1,45,35.6,43.2,35.6z"/>
</g>
</svg>
