<?xml version="1.0" encoding="utf-8"?>
<!-- Generator: Adobe Illustrator 19.2.1, SVG Export Plug-In . SVG Version: 6.00 Build 0)  -->
<svg version="1.1" id="Layer_1" xmlns="http://www.w3.org/2000/svg" xmlns:xlink="http://www.w3.org/1999/xlink" x="0px" y="0px"
	 viewBox="0 0 32 32" style="enable-background:new 0 0 32 32;" xml:space="preserve">
<g>
	<path d="M9.2,12.8c-1.7,0-3.1,1.2-3.6,2.7H1v2h4.6c0.4,1.6,1.9,2.7,3.6,2.7c2.1,0,3.8-1.7,3.8-3.8S11.2,12.8,9.2,12.8z M9.2,18.2
		c-0.9,0-1.7-0.8-1.7-1.7c0-0.9,0.8-1.7,1.7-1.7s1.7,0.8,1.7,1.7C10.9,17.5,10.1,18.2,9.2,18.2z"/>
	<path d="M31,15.5h-4.6c-0.4-1.6-1.9-2.7-3.6-2.7c-0.8,0-1.5,0.2-2.1,0.6l0,0l-5.5-4.5L14,10.5l5.4,4.5c-0.2,0.5-0.4,1-0.4,1.6
		c0,2.1,1.7,3.8,3.8,3.8c1.7,0,3.1-1.2,3.6-2.7H31V15.5z M22.8,18.2c-0.9,0-1.7-0.8-1.7-1.7c0-0.9,0.8-1.7,1.7-1.7s1.7,0.8,1.7,1.7
		C24.5,17.5,23.8,18.2,22.8,18.2z"/>
</g>
</svg>
