<?xml version="1.0" encoding="utf-8"?>
<!-- Generator: Adobe Illustrator 19.2.1, SVG Export Plug-In . SVG Version: 6.00 Build 0)  -->
<svg version="1.1" id="Layer_1" xmlns="http://www.w3.org/2000/svg" xmlns:xlink="http://www.w3.org/1999/xlink" x="0px" y="0px"
	 viewBox="0 0 16 16" style="enable-background:new 0 0 16 16;" xml:space="preserve">
<g>
	<path d="M11.2,2.7H15v-1h-3.8c-1.3,0-2.4,1.1-2.4,2.4c0,0.8,0.4,1.5,1,1.9c-0.6,0.4-1,1.1-1,1.9c0,0.8,0.4,1.5,1,1.9
		c-0.6,0.4-1,1.1-1,1.9c0,1.3,1.1,2.4,2.4,2.4H15v-1h-3.8c-0.8,0-1.4-0.6-1.4-1.4c0-0.8,0.6-1.4,1.4-1.4c0.3,0,0.5-0.2,0.5-0.5
		c0-0.3-0.2-0.5-0.5-0.5c-0.8,0-1.4-0.6-1.4-1.4c0-0.8,0.6-1.4,1.4-1.4c0.3,0,0.5-0.2,0.5-0.5c0-0.3-0.2-0.5-0.5-0.5
		c-0.8,0-1.4-0.6-1.4-1.4S10.4,2.7,11.2,2.7z"/>
	<path d="M7.2,4.2c0-1.3-1.1-2.4-2.4-2.4H1v1h3.8c0.8,0,1.4,0.6,1.4,1.4S5.6,5.6,4.8,5.6c-0.3,0-0.5,0.2-0.5,0.5
		c0,0.3,0.2,0.5,0.5,0.5c0.8,0,1.4,0.6,1.4,1.4c0,0.8-0.6,1.4-1.4,1.4c-0.3,0-0.5,0.2-0.5,0.5c0,0.3,0.2,0.5,0.5,0.5
		c0.8,0,1.4,0.6,1.4,1.4c0,0.8-0.6,1.4-1.4,1.4H1v1h3.8c1.3,0,2.4-1.1,2.4-2.4c0-0.8-0.4-1.5-1-1.9c0.6-0.4,1-1.1,1-1.9
		c0-0.8-0.4-1.5-1-1.9C6.8,5.7,7.2,5,7.2,4.2z"/>
</g>
</svg>
