<?xml version="1.0" encoding="utf-8"?>
<!-- Generator: Adobe Illustrator 19.2.1, SVG Export Plug-In . SVG Version: 6.00 Build 0)  -->
<svg version="1.1" id="Layer_1" xmlns="http://www.w3.org/2000/svg" xmlns:xlink="http://www.w3.org/1999/xlink" x="0px" y="0px"
	 viewBox="0 0 60 60" style="enable-background:new 0 0 60 60;" xml:space="preserve">
<g>
	<path d="M13.2,36.1c3.4,0,6.1-2.8,6.1-6.1c0-3.4-2.8-6.1-6.1-6.1c-3.4,0-6.1,2.8-6.1,6.1C7.1,33.4,9.8,36.1,13.2,36.1z M9.8,30
		c0-0.5,0.1-0.9,0.3-1.3l4.5,4.5c-0.4,0.2-0.8,0.3-1.3,0.3C11.3,33.4,9.8,31.9,9.8,30z M16.7,30c0,0.5-0.1,0.9-0.3,1.3l-4.5-4.5
		c0.4-0.2,0.8-0.3,1.3-0.3C15.1,26.6,16.7,28.1,16.7,30z"/>
	<path d="M30,36.1c3.4,0,6.1-2.8,6.1-6.1c0-3.4-2.8-6.1-6.1-6.1s-6.1,2.8-6.1,6.1C23.9,33.4,26.6,36.1,30,36.1z M26.6,30
		c0-0.5,0.1-0.9,0.3-1.3l4.5,4.5c-0.4,0.2-0.8,0.3-1.3,0.3C28.1,33.4,26.6,31.9,26.6,30z M33.4,30c0,0.5-0.1,0.9-0.3,1.3l-4.5-4.5
		c0.4-0.2,0.8-0.3,1.3-0.3C31.9,26.6,33.4,28.1,33.4,30z"/>
	<path d="M46.8,36.1c3.4,0,6.1-2.8,6.1-6.1c0-3.4-2.8-6.1-6.1-6.1c-3.4,0-6.1,2.8-6.1,6.1C40.6,33.4,43.4,36.1,46.8,36.1z M43.3,30
		c0-0.5,0.1-0.9,0.3-1.3l4.5,4.5c-0.4,0.2-0.8,0.3-1.3,0.3C44.9,33.4,43.3,31.9,43.3,30z M50.2,30c0,0.5-0.1,0.9-0.3,1.3l-4.5-4.5
		c0.4-0.2,0.8-0.3,1.3-0.3C48.7,26.6,50.2,28.1,50.2,30z"/>
	<path d="M57,11.8H3c-1.1,0-2,0.9-2,2v32.4c0,1.1,0.9,2,2,2h54c1.1,0,2-0.9,2-2V13.8C59,12.7,58.1,11.8,57,11.8z M55,44.2H5V15.8H55
		V44.2z"/>
</g>
</svg>
