<?xml version="1.0" encoding="utf-8"?>
<!-- Generator: Adobe Illustrator 19.2.1, SVG Export Plug-In . SVG Version: 6.00 Build 0)  -->
<svg version="1.1" id="Layer_1" xmlns="http://www.w3.org/2000/svg" xmlns:xlink="http://www.w3.org/1999/xlink" x="0px" y="0px"
	 viewBox="0 0 24 24" style="enable-background:new 0 0 24 24;" xml:space="preserve">
<g>
	<path d="M5.9,17.5V12c0-0.4-0.3-0.8-0.8-0.8S4.3,11.6,4.3,12v5.5c-1.2,0.3-2,1.4-2,2.7c0,1.6,1.3,2.8,2.8,2.8s2.8-1.3,2.8-2.8
		C7.9,18.9,7,17.8,5.9,17.5z M5.1,21.5c-0.7,0-1.3-0.6-1.3-1.3s0.6-1.3,1.3-1.3s1.3,0.6,1.3,1.3S5.8,21.5,5.1,21.5z"/>
	<path d="M19.7,17.5V12c0-0.4-0.3-0.8-0.8-0.8s-0.8,0.3-0.8,0.8v5.5c-1.2,0.3-2,1.4-2,2.7c0,1.6,1.3,2.8,2.8,2.8
		c1.6,0,2.8-1.3,2.8-2.8C21.7,18.9,20.9,17.8,19.7,17.5z M18.9,21.5c-0.7,0-1.3-0.6-1.3-1.3s0.6-1.3,1.3-1.3s1.3,0.6,1.3,1.3
		S19.6,21.5,18.9,21.5z"/>
	<path d="M12.8,14.4V12c0-0.4-0.3-0.8-0.8-0.8s-0.8,0.3-0.8,0.8v2.4c-1.2,0.3-2,1.4-2,2.7s0.9,2.4,2,2.7v2.4c0,0.4,0.3,0.8,0.8,0.8
		s0.8-0.3,0.8-0.8v-2.4c1.2-0.3,2-1.4,2-2.7S13.9,14.8,12.8,14.4z M12,18.4c-0.7,0-1.3-0.6-1.3-1.3c0-0.7,0.6-1.3,1.3-1.3
		s1.3,0.6,1.3,1.3C13.3,17.8,12.7,18.4,12,18.4z"/>
	<path d="M2.5,9.7h19c0.4,0,0.8-0.3,0.8-0.8V4.2c0-1.7-1.4-3.2-3.2-3.2H4.8C3.1,1,1.7,2.4,1.7,4.2v4.8C1.7,9.4,2,9.7,2.5,9.7z
		 M3.2,4.2c0-0.9,0.7-1.6,1.6-1.6h14.2c0.9,0,1.6,0.7,1.6,1.6v4h-6.8c0-0.1-0.1-0.2-0.1-0.3l1.9-2.6c0.3-0.3,0.2-0.8-0.2-1.1
		C15.2,4,14.7,4,14.5,4.4L12.5,7c-0.2,0-0.3-0.1-0.5-0.1c-0.9,0-1.6,0.5-1.9,1.3H3.2V4.2z"/>
</g>
</svg>
