<?xml version="1.0" encoding="utf-8"?>
<!-- Generator: Adobe Illustrator 19.2.1, SVG Export Plug-In . SVG Version: 6.00 Build 0)  -->
<svg version="1.1" id="Layer_1" xmlns="http://www.w3.org/2000/svg" xmlns:xlink="http://www.w3.org/1999/xlink" x="0px" y="0px"
	 viewBox="0 0 32 32" style="enable-background:new 0 0 32 32;" xml:space="preserve">
<g>
	<path d="M5.9,23.5V16c0-0.6-0.5-1-1-1s-1,0.5-1,1v7.5C2.2,23.9,1,25.4,1,27.2C1,29.3,2.7,31,4.8,31s3.8-1.7,3.8-3.8
		C8.7,25.4,7.5,23.9,5.9,23.5z M4.8,28.9c-1,0-1.7-0.8-1.7-1.7c0-1,0.8-1.7,1.7-1.7s1.7,0.8,1.7,1.7C6.6,28.1,5.8,28.9,4.8,28.9z"/>
	<path d="M17,16.5V16c0-0.6-0.5-1-1-1c-0.6,0-1,0.5-1,1v0.5c-1.6,0.5-2.8,1.9-2.8,3.7s1.2,3.2,2.8,3.7V30c0,0.6,0.5,1,1,1
		c0.6,0,1-0.5,1-1v-6.1c1.6-0.5,2.8-1.9,2.8-3.7S18.7,17,17,16.5z M16,21.9c-1,0-1.7-0.8-1.7-1.7c0-1,0.8-1.7,1.7-1.7
		s1.7,0.8,1.7,1.7C17.7,21.1,17,21.9,16,21.9z"/>
	<path d="M31,24.4c0-1.8-1.2-3.2-2.8-3.7V16c0-0.6-0.5-1-1-1c-0.6,0-1,0.5-1,1v4.7c-1.6,0.5-2.8,1.9-2.8,3.7s1.2,3.2,2.8,3.7V30
		c0,0.6,0.5,1,1,1c0.6,0,1-0.5,1-1V28C29.8,27.6,31,26.1,31,24.4z M27.2,26.1c-1,0-1.7-0.8-1.7-1.7c0-1,0.8-1.7,1.7-1.7
		c1,0,1.7,0.8,1.7,1.7C28.9,25.3,28.1,26.1,27.2,26.1z"/>
	<path d="M4.8,12.9h22.3c0.6,0,1-0.5,1-1V5.3c0-2.4-1.9-4.3-4.3-4.3H8.1C5.7,1,3.8,2.9,3.8,5.3v6.5C3.8,12.4,4.3,12.9,4.8,12.9z
		 M5.9,5.3c0-1.2,1-2.2,2.2-2.2h15.8c1.2,0,2.2,1,2.2,2.2v5.5h-7.5c-0.1-0.1-0.1-0.3-0.2-0.4L21,6.9c0.3-0.5,0.3-1.1-0.2-1.5
		c-0.5-0.3-1.1-0.3-1.5,0.2l-2.6,3.5C16.5,9.1,16.2,9,16,9c-1.2,0-2.2,0.7-2.6,1.7H5.9V5.3z"/>
</g>
</svg>
