<?xml version="1.0" encoding="utf-8"?>
<!-- Generator: Adobe Illustrator 19.2.1, SVG Export Plug-In . SVG Version: 6.00 Build 0)  -->
<svg version="1.1" id="Layer_1" xmlns="http://www.w3.org/2000/svg" xmlns:xlink="http://www.w3.org/1999/xlink" x="0px" y="0px"
	 viewBox="0 0 60 60" style="enable-background:new 0 0 60 60;" xml:space="preserve">
<path d="M57.8,55.1c-12-5.7-12.3-30.3-12.3-30.6c0-1.1-0.9-2-2-2h-4.2c1.5-0.8,2.8-1.9,3.8-3.2c1.7,1.2,3.7,1.8,5.8,1.8
	c5.6,0,10.1-4.5,10.1-10.1S54.5,1,48.9,1c-2.7,0-5.3,1.1-7.1,3c-2-1.9-4.7-3-7.7-3c-3.1,0-6,1.2-8.2,3.4c-1.4,1.5-2.4,3.3-2.9,5.2
	c-3.4,1.2-5.8,4.4-5.8,8.2c0,1.7,0.5,3.4,1.4,4.7h-2.1c-1.1,0-2,0.9-2,2c0,23-12,30.3-12.5,30.6c-0.8,0.5-1.2,1.4-0.9,2.3
	c0.2,0.9,1,1.5,2,1.5l45.5,0c10.1,0,10.1,0,10.4-1.6C59.2,56.5,58.7,55.5,57.8,55.1z M48.9,5c3.3,0,6.1,2.7,6.1,6.1
	s-2.7,6.1-6.1,6.1c-1.4,0-2.8-0.5-3.9-1.5c0.3-1,0.5-2.1,0.5-3.3c0-1.9-0.5-3.7-1.3-5.3c0.1-0.1,0.1-0.1,0.2-0.1
	C45.5,5.8,47.2,5,48.9,5z M21.2,17.9c0-2.6,2.1-4.7,4.7-4.7c1,0,2,0.3,2.8,0.9c0.9,0.7,2.2,0.5,2.8-0.4c0.7-0.9,0.5-2.2-0.4-2.8
	c-1.1-0.9-2.4-1.4-3.8-1.6c0.3-0.7,0.8-1.4,1.4-1.9C30.2,5.8,32,5,34,5c4.1,0,7.4,3.3,7.4,7.4s-3.3,7.4-7.4,7.4
	c-2,0-3.9-0.8-5.3-2.2c-0.8-0.8-2.1-0.8-2.9,0c-0.8,0.8-0.8,2.1,0,2.9c0.9,0.9,1.8,1.5,2.9,2.1H26C23.4,22.6,21.2,20.5,21.2,17.9z
	 M8.5,55c1-1.1,2.1-2.4,3.2-4.1h23.8c1.1,0,2-0.9,2-2s-0.9-2-2-2H13.9c0.6-1.3,1.2-2.7,1.8-4.2c0.3,0.1-2.2,0.2-1.8,0.2h10.8
	c1.1,0,2-0.9,2-2s-0.9-2-2-2h-7.8c0.9-3.5,1.5-7.5,1.7-12.1h23c0.3,5.4,1.8,20.3,9.4,28.4C41,55,21,55,8.5,55z"/>
</svg>
