<?xml version="1.0" encoding="utf-8"?>
<!-- Generator: Adobe Illustrator 19.2.1, SVG Export Plug-In . SVG Version: 6.00 Build 0)  -->
<svg version="1.1" id="Layer_1" xmlns="http://www.w3.org/2000/svg" xmlns:xlink="http://www.w3.org/1999/xlink" x="0px" y="0px"
	 viewBox="0 0 24 24" style="enable-background:new 0 0 24 24;" xml:space="preserve">
<g>
	<path d="M16.1,2.8H1.8C1.3,2.8,1,3.1,1,3.6v14.3c0,0.4,0.3,0.8,0.8,0.8v1.8c0,0.4,0.3,0.8,0.8,0.8h9.2c0.4,0,0.8-0.3,0.8-0.8v-1.8
		h3.6c0.4,0,0.8-0.3,0.8-0.8V3.6C16.9,3.1,16.5,2.8,16.1,2.8z M10,13.5H3.8c-0.4,0-0.8-0.3-0.8-0.8S3.4,12,3.8,12H10
		c0.4,0,0.8,0.3,0.8,0.8S10.4,13.5,10,13.5z M10,10.5H3.8C3.4,10.5,3,10.1,3,9.7s0.3-0.8,0.8-0.8H10c0.4,0,0.8,0.3,0.8,0.8
		S10.4,10.5,10,10.5z M10,7.4H3.8C3.4,7.4,3,7.1,3,6.6c0-0.4,0.3-0.8,0.8-0.8H10c0.4,0,0.8,0.3,0.8,0.8C10.7,7.1,10.4,7.4,10,7.4z"
		/>
	<path d="M23,9.5h-3V5c0-0.6-0.4-1-1-1s-1,0.4-1,1v11c0,0.6,0.4,1,1,1s1-0.4,1-1v-4.5h3V9.5z"/>
</g>
</svg>
