<?xml version="1.0" encoding="utf-8"?>
<!-- Generator: Adobe Illustrator 19.2.1, SVG Export Plug-In . SVG Version: 6.00 Build 0)  -->
<svg version="1.1" id="Layer_1" xmlns="http://www.w3.org/2000/svg" xmlns:xlink="http://www.w3.org/1999/xlink" x="0px" y="0px"
	 viewBox="0 0 60 60" style="enable-background:new 0 0 60 60;" xml:space="preserve">
<g>
	<path d="M40.8,5.7H3c-1.1,0-2,0.9-2,2v37.8c0,1.1,0.9,2,2,2v4.7c0,1.1,0.9,2,2,2h24.3c1.1,0,2-0.9,2-2v-4.7h9.4c1.1,0,2-0.9,2-2
		V7.7C42.8,6.6,41.9,5.7,40.8,5.7z M24.6,34H8.4c-1.1,0-2-0.9-2-2c0-1.1,0.9-2,2-2h16.2c1.1,0,2,0.9,2,2C26.6,33.1,25.7,34,24.6,34z
		 M24.6,26H8.4c-1.1,0-2-0.9-2-2s0.9-2,2-2h16.2c1.1,0,2,0.9,2,2S25.7,26,24.6,26z M24.6,17.9H8.4c-1.1,0-2-0.9-2-2s0.9-2,2-2h16.2
		c1.1,0,2,0.9,2,2S25.7,17.9,24.6,17.9z"/>
	<path d="M59,23.4h-7.9V11.5c0-1.5-1.2-2.6-2.6-2.6c-1.5,0-2.6,1.2-2.6,2.6v29c0,1.5,1.2,2.6,2.6,2.6c1.5,0,2.6-1.2,2.6-2.6V28.7H59
		V23.4z"/>
</g>
</svg>
