<?xml version="1.0" encoding="utf-8"?>
<!-- Generator: Adobe Illustrator 19.2.1, SVG Export Plug-In . SVG Version: 6.00 Build 0)  -->
<svg version="1.1" id="Layer_1" xmlns="http://www.w3.org/2000/svg" xmlns:xlink="http://www.w3.org/1999/xlink" x="0px" y="0px"
	 viewBox="0 0 32 32" style="enable-background:new 0 0 32 32;" xml:space="preserve">
<g>
	<path d="M21.6,3.4H2c-0.6,0-1,0.5-1,1V24c0,0.6,0.5,1,1,1v2.4c0,0.6,0.5,1,1,1h12.6c0.6,0,1-0.5,1-1v-2.4h4.9c0.6,0,1-0.5,1-1V4.5
		C22.6,3.9,22.2,3.4,21.6,3.4z M13.2,18.1H4.8c-0.6,0-1-0.5-1-1c0-0.6,0.5-1,1-1h8.4c0.6,0,1,0.5,1,1C14.3,17.6,13.8,18.1,13.2,18.1
		z M13.2,13.9H4.8c-0.6,0-1-0.5-1-1s0.5-1,1-1h8.4c0.6,0,1,0.5,1,1S13.8,13.9,13.2,13.9z M13.2,9.7H4.8c-0.6,0-1-0.5-1-1s0.5-1,1-1
		h8.4c0.6,0,1,0.5,1,1S13.8,9.7,13.2,9.7z"/>
	<path d="M31,12.6h-4.1V6.5c0-0.8-0.6-1.4-1.4-1.4s-1.4,0.6-1.4,1.4v15c0,0.8,0.6,1.4,1.4,1.4s1.4-0.6,1.4-1.4v-6.1H31V12.6z"/>
</g>
</svg>
