<?xml version="1.0" encoding="utf-8"?>
<!-- Generator: Adobe Illustrator 19.2.1, SVG Export Plug-In . SVG Version: 6.00 Build 0)  -->
<svg version="1.1" id="Layer_1" xmlns="http://www.w3.org/2000/svg" xmlns:xlink="http://www.w3.org/1999/xlink" x="0px" y="0px"
	 viewBox="0 0 24 24" style="enable-background:new 0 0 24 24;" xml:space="preserve">
<g>
	<path d="M17,3.3H2C1.6,3.3,1.3,3.6,1.3,4v14c0,0.4,0.3,0.8,0.8,0.8h1.3V21c0,0.4,0.3,0.8,0.8,0.8h9c0.4,0,0.8-0.3,0.8-0.8v-2.3H17
		c0.4,0,0.8-0.3,0.8-0.8V4C17.8,3.6,17.4,3.3,17,3.3z M4.8,18.8h0.5v1.5H4.8V18.8z M12.3,20.3H6.8v-1.5h5.5V20.3z M16.3,17.3H13H4
		H2.8V4.8h13.5V17.3z"/>
	<path d="M23,10.3h-2.3V5.6c0-0.4-0.3-0.8-0.8-0.8s-0.8,0.3-0.8,0.8v10.9c0,0.4,0.3,0.8,0.8,0.8s0.8-0.3,0.8-0.8v-4.7H23V10.3z"/>
	<path d="M5,8.8h5c0.4,0,0.8-0.3,0.8-0.8S10.4,7.3,10,7.3H5C4.6,7.3,4.3,7.6,4.3,8S4.6,8.8,5,8.8z"/>
	<path d="M5,11.8h5c0.4,0,0.8-0.3,0.8-0.8s-0.3-0.8-0.8-0.8H5c-0.4,0-0.8,0.3-0.8,0.8S4.6,11.8,5,11.8z"/>
	<path d="M5,14.8h5c0.4,0,0.8-0.3,0.8-0.8s-0.3-0.8-0.8-0.8H5c-0.4,0-0.8,0.3-0.8,0.8S4.6,14.8,5,14.8z"/>
</g>
</svg>
