<?xml version="1.0" encoding="utf-8"?>
<!-- Generator: Adobe Illustrator 19.2.1, SVG Export Plug-In . SVG Version: 6.00 Build 0)  -->
<svg version="1.1" id="Layer_1" xmlns="http://www.w3.org/2000/svg" xmlns:xlink="http://www.w3.org/1999/xlink" x="0px" y="0px"
	 viewBox="0 0 32 32" style="enable-background:new 0 0 32 32;" xml:space="preserve">
<g>
	<polygon points="14.4,16 14.4,21.4 16,21.4 16,24.6 20.3,19.2 17.6,19.2 18.9,16 	"/>
	<path d="M17.4,3.2V1h-2.9v2.2C8.2,3.9,3.1,9.4,3.1,16c0,6.6,5,12.1,11.4,12.8V31h2.9v-2.2c6.4-0.7,11.4-6.2,11.4-12.8
		C28.9,9.4,23.8,3.9,17.4,3.2z M9.8,9.2h12.3c0.7,0,1.3,0.6,1.3,1.3c0,0.7-0.6,1.3-1.3,1.3H9.8c-0.7,0-1.3-0.6-1.3-1.3
		C8.5,9.8,9.1,9.2,9.8,9.2z M16,26c-5.5,0-10-4.5-10-10c0-0.5,0-1,0.1-1.4h19.8C26,15,26,15.5,26,16C26,21.5,21.5,26,16,26z"/>
	<circle cx="11.3" cy="10.5" r="0.9"/>
	<circle cx="14.5" cy="10.5" r="0.9"/>
	<circle cx="17.7" cy="10.5" r="0.9"/>
	<circle cx="21" cy="10.5" r="0.9"/>
</g>
</svg>
