<?xml version="1.0" encoding="utf-8"?>
<!-- Generator: Adobe Illustrator 19.2.1, SVG Export Plug-In . SVG Version: 6.00 Build 0)  -->
<svg version="1.1" id="Layer_1" xmlns="http://www.w3.org/2000/svg" xmlns:xlink="http://www.w3.org/1999/xlink" x="0px" y="0px"
	 viewBox="0 0 24 24" style="enable-background:new 0 0 24 24;" xml:space="preserve">
<g>
	<polygon points="10.8,12 10.8,15.9 12,15.9 12,18.3 15.1,14.4 13.2,14.4 14.1,12 	"/>
	<path d="M13,2.6V1H11v1.6C6.2,3.2,2.6,7.2,2.6,12c0,4.8,3.7,8.8,8.4,9.4V23H13v-1.6c4.7-0.5,8.4-4.5,8.4-9.4
		C21.4,7.2,17.8,3.2,13,2.6z M7.5,7h9c0.5,0,1,0.4,1,1c0,0.5-0.4,1-1,1h-9c-0.5,0-1-0.4-1-1C6.5,7.4,6.9,7,7.5,7z M12,19.3
		c-4,0-7.3-3.3-7.3-7.3c0-0.4,0-0.7,0.1-1h14.5c0,0.3,0.1,0.7,0.1,1C19.3,16,16,19.3,12,19.3z"/>
	<circle cx="8.6" cy="8" r="0.7"/>
	<circle cx="10.9" cy="8" r="0.7"/>
	<circle cx="13.3" cy="8" r="0.7"/>
	<circle cx="15.6" cy="8" r="0.7"/>
</g>
</svg>
