<?xml version="1.0" encoding="utf-8"?>
<!-- Generator: Adobe Illustrator 19.2.1, SVG Export Plug-In . SVG Version: 6.00 Build 0)  -->
<svg version="1.1" id="Layer_1" xmlns="http://www.w3.org/2000/svg" xmlns:xlink="http://www.w3.org/1999/xlink" x="0px" y="0px"
	 viewBox="0 0 60 60" style="enable-background:new 0 0 60 60;" xml:space="preserve">
<g>
	<circle cx="40.5" cy="17.5" r="2.5"/>
	<circle cx="33.5" cy="17.5" r="2.5"/>
	<circle cx="26.5" cy="17.5" r="2.5"/>
	<circle cx="19.5" cy="17.5" r="2.5"/>
	<g>
		<polygon points="35.8,30 26.8,30 26.8,40.8 30,40.8 30,47.3 38.6,36.5 33.2,36.5 		"/>
		<path d="M55.7,30c0-13.3-10.1-24.2-23.1-25.6V1h-5.3v3.4C14.4,5.8,4.3,16.7,4.3,30s10.1,24.2,23.1,25.6V59h5.3v-3.4
			C45.6,54.2,55.7,43.3,55.7,30z M30,8.3c9.4,0,17.5,6.1,20.5,14.5h-41C12.5,14.3,20.6,8.3,30,8.3z M30,51.8C18,51.8,8.3,42,8.3,30
			c0-1.1,0.1-2.2,0.3-3.3h42.9c0.2,1.1,0.3,2.2,0.3,3.3C51.8,42,42,51.8,30,51.8z"/>
	</g>
</g>
</svg>
