<?xml version="1.0" encoding="utf-8"?>
<!-- Generator: Adobe Illustrator 19.2.1, SVG Export Plug-In . SVG Version: 6.00 Build 0)  -->
<svg version="1.1" id="Layer_1" xmlns="http://www.w3.org/2000/svg" xmlns:xlink="http://www.w3.org/1999/xlink" x="0px" y="0px"
	 viewBox="0 0 60 60" style="enable-background:new 0 0 60 60;" xml:space="preserve">
<polygon points="27,30 27,40 30,40 30,46 38,36 33,36 35.3,30 "/>
<path d="M32.7,6.2V2h-5.3v4.2C15.4,7.5,6,17.7,6,30c0,12.3,9.4,22.5,21.3,23.8V58h5.3v-4.2C44.7,52.5,54,42.3,54,30
	C54,17.7,44.7,7.5,32.7,6.2z M18.5,17.3h23c1.4,0,2.5,1.1,2.5,2.5c0,1.4-1.1,2.5-2.5,2.5h-23c-1.4,0-2.5-1.1-2.5-2.5
	C16,18.4,17.1,17.3,18.5,17.3z M30,48.7c-10.3,0-18.7-8.4-18.7-18.7c0-0.9,0.1-1.8,0.2-2.7h36.9c0.1,0.9,0.2,1.8,0.2,2.7
	C48.7,40.3,40.3,48.7,30,48.7z"/>
<circle cx="21.3" cy="19.8" r="1.8"/>
<circle cx="27.3" cy="19.8" r="1.8"/>
<circle cx="33.3" cy="19.8" r="1.8"/>
<circle cx="39.3" cy="19.8" r="1.8"/>
</svg>
