<?xml version="1.0" encoding="utf-8"?>
<!-- Generator: Adobe Illustrator 19.2.1, SVG Export Plug-In . SVG Version: 6.00 Build 0)  -->
<svg version="1.1" id="Layer_1" xmlns="http://www.w3.org/2000/svg" xmlns:xlink="http://www.w3.org/1999/xlink" x="0px" y="0px"
	 viewBox="0 0 32 32" style="enable-background:new 0 0 32 32;" xml:space="preserve">
<g>
	<circle cx="21.4" cy="9.5" r="1.3"/>
	<circle cx="17.8" cy="9.5" r="1.3"/>
	<circle cx="14.2" cy="9.5" r="1.3"/>
	<circle cx="10.6" cy="9.5" r="1.3"/>
	<g>
		<polygon points="19,16 14.3,16 14.3,21.6 16,21.6 16,24.9 20.5,19.3 17.7,19.3 		"/>
		<path d="M29.3,16c0-6.9-5.2-12.5-11.9-13.2V1h-2.7v1.8C7.9,3.5,2.7,9.1,2.7,16s5.2,12.5,11.9,13.2V31h2.7v-1.8
			C24.1,28.5,29.3,22.9,29.3,16z M16,4.8c4.9,0,9,3.1,10.6,7.5H5.4C7,7.9,11.1,4.8,16,4.8z M16,27.3c-6.2,0-11.3-5-11.3-11.3
			c0-0.6,0.1-1.1,0.1-1.7h22.2c0.1,0.6,0.1,1.1,0.1,1.7C27.3,22.2,22.2,27.3,16,27.3z"/>
	</g>
</g>
</svg>
