<?xml version="1.0" encoding="utf-8"?>
<!-- Generator: Adobe Illustrator 19.2.1, SVG Export Plug-In . SVG Version: 6.00 Build 0)  -->
<svg version="1.1" id="Layer_1" xmlns="http://www.w3.org/2000/svg" xmlns:xlink="http://www.w3.org/1999/xlink" x="0px" y="0px"
	 viewBox="0 0 16 16" style="enable-background:new 0 0 16 16;" xml:space="preserve">
<g>
	<g>
		<path d="M11.2,14.8c-2.2,0-3-3.4-3.8-6.9C6.8,5.2,6,2.1,4.8,2.1c-2,0-2.7,4-2.7,4.1c0,0.3-0.3,0.4-0.5,0.4C1.3,6.5,1.1,6.3,1.2,6
			c0-0.2,0.8-4.9,3.7-4.9c2,0,2.7,3.2,3.5,6.5c0.7,2.9,1.4,6.2,2.9,6.2c2,0,2.7-4,2.7-4c0-0.3,0.3-0.4,0.5-0.4
			c0.3,0,0.4,0.3,0.4,0.5C14.8,10.2,14.1,14.8,11.2,14.8z"/>
	</g>
	<g>
		<rect x="10.5" y="7.5" width="1.9" height="1"/>
	</g>
	<g>
		<rect x="13.7" y="7.5" width="1.3" height="1"/>
	</g>
	<g>
		<rect x="1" y="7.5" width="1.3" height="1"/>
	</g>
	<g>
		<rect x="6.7" y="7.5" width="2.5" height="1"/>
	</g>
	<g>
		<rect x="3.5" y="7.5" width="1.9" height="1"/>
	</g>
</g>
</svg>
