<?xml version="1.0" encoding="utf-8"?>
<!-- Generator: Adobe Illustrator 19.2.1, SVG Export Plug-In . SVG Version: 6.00 Build 0)  -->
<svg version="1.1" id="Layer_1" xmlns="http://www.w3.org/2000/svg" xmlns:xlink="http://www.w3.org/1999/xlink" x="0px" y="0px"
	 viewBox="0 0 32 32" style="enable-background:new 0 0 32 32;" xml:space="preserve">
<g>
	<g>
		<path d="M23,31c-4.8,0-6.5-7.4-8.3-15.2C13.3,9.9,11.7,3.1,9,3.1c-4.3,0-5.9,8.8-5.9,8.9c-0.1,0.6-0.6,1-1.2,0.9
			c-0.6-0.1-1-0.6-0.9-1.2C1.1,11.2,2.9,1,9,1c4.4,0,6,7,7.7,14.4c1.5,6.4,3.1,13.6,6.3,13.6c4.4,0,5.9-8.8,5.9-8.9
			c0.1-0.6,0.6-1,1.2-0.9c0.6,0.1,1,0.6,0.9,1.2C30.9,20.8,29.3,31,23,31z"/>
	</g>
	<g>
		<rect x="21.6" y="15" width="4.2" height="2.1"/>
	</g>
	<g>
		<rect x="28.6" y="15" width="2.8" height="2.1"/>
	</g>
	<g>
		<rect x="0.7" y="15" width="2.8" height="2.1"/>
	</g>
	<g>
		<rect x="13.2" y="15" width="5.6" height="2.1"/>
	</g>
	<g>
		<rect x="6.2" y="15" width="4.2" height="2.1"/>
	</g>
</g>
</svg>
