<?xml version="1.0" encoding="utf-8"?>
<!-- Generator: Adobe Illustrator 19.2.1, SVG Export Plug-In . SVG Version: 6.00 Build 0)  -->
<svg version="1.1" id="Layer_1" xmlns="http://www.w3.org/2000/svg" xmlns:xlink="http://www.w3.org/1999/xlink" x="0px" y="0px"
	 viewBox="0 0 24 24" style="enable-background:new 0 0 24 24;" xml:space="preserve">
<path d="M22.6,21.5C18,19.4,17.9,10,17.9,9.9c0-0.4-0.3-0.8-0.8-0.8h-1.6C16.1,8.9,16.6,8.5,17,8c0.6,0.4,1.4,0.7,2.2,0.7
	C21.3,8.7,23,7,23,4.8S21.3,1,19.2,1c-1,0-2,0.4-2.7,1.1C15.7,1.4,14.7,1,13.5,1c-1.2,0-2.3,0.5-3.1,1.3c-0.5,0.6-0.9,1.2-1.1,2
	C8.1,4.7,7.1,6,7.1,7.4c0,0.7,0.2,1.3,0.5,1.8H6.9c-0.4,0-0.8,0.3-0.8,0.8c0,8.7-4.5,11.5-4.7,11.6c-0.3,0.2-0.4,0.5-0.4,0.9
	S1.4,23,1.8,23L19,23c3.8,0,3.8,0,3.9-0.6C23.1,22,22.9,21.7,22.6,21.5z M19.2,2.5c1.3,0,2.3,1,2.3,2.3s-1,2.3-2.3,2.3
	c-0.5,0-1.1-0.2-1.5-0.6c0.1-0.4,0.2-0.8,0.2-1.2c0-0.7-0.2-1.4-0.5-2c0,0,0,0,0.1-0.1C17.9,2.8,18.5,2.5,19.2,2.5z M8.7,7.4
	c0-1,0.8-1.8,1.8-1.8c0.4,0,0.8,0.1,1.1,0.4c0.3,0.3,0.8,0.2,1.1-0.2c0.3-0.3,0.2-0.8-0.2-1.1C12,4.4,11.5,4.2,11,4.1
	c0.1-0.3,0.3-0.5,0.5-0.7c0.5-0.5,1.2-0.8,2-0.8c1.6,0,2.8,1.3,2.8,2.8s-1.3,2.8-2.8,2.8c-0.8,0-1.5-0.3-2-0.8
	c-0.3-0.3-0.8-0.3-1.1,0c-0.3,0.3-0.3,0.8,0,1.1c0.3,0.3,0.7,0.6,1.1,0.8h-1.1C9.5,9.2,8.7,8.4,8.7,7.4z M3.8,21.5
	c0.4-0.4,0.8-0.9,1.2-1.5h9c0.4,0,0.8-0.3,0.8-0.8c0-0.4-0.3-0.8-0.8-0.8H5.9c0.2-0.5,0.5-1,0.7-1.6c0.1,0-0.8,0.1-0.7,0.1H10
	c0.4,0,0.8-0.3,0.8-0.8s-0.3-0.8-0.8-0.8H7c0.3-1.3,0.6-2.8,0.6-4.6h8.7c0.1,2.1,0.7,7.7,3.6,10.8C16.2,21.5,8.6,21.5,3.8,21.5z"/>
</svg>
