<?xml version="1.0" encoding="utf-8"?>
<!-- Generator: Adobe Illustrator 19.2.1, SVG Export Plug-In . SVG Version: 6.00 Build 0)  -->
<svg version="1.1" id="Layer_1" xmlns="http://www.w3.org/2000/svg" xmlns:xlink="http://www.w3.org/1999/xlink" x="0px" y="0px"
	 viewBox="0 0 32 32" style="enable-background:new 0 0 32 32;" xml:space="preserve">
<g>
	<path d="M30,8H2C1.5,8,1,8.4,1,9v19.5c0,0.6,0.5,1,1,1H30c0.6,0,1-0.5,1-1V9C31,8.4,30.5,8,30,8z M28.9,27.5H3.1V10.1h25.8V27.5z"
		/>
	<path d="M20.2,19.8h5.6c0.6,0,1-0.5,1-1c0-0.6-0.5-1-1-1h-5.6c-0.6,0-1,0.5-1,1C19.1,19.4,19.6,19.8,20.2,19.8z"/>
	<path d="M6.2,19.8H8v1.7c0,0.6,0.5,1,1,1c0.6,0,1-0.5,1-1v-1.7h1.7c0.6,0,1-0.5,1-1c0-0.6-0.5-1-1-1h-1.7V16c0-0.6-0.5-1-1-1
		c-0.6,0-1,0.5-1,1v1.7H6.2c-0.6,0-1,0.5-1,1C5.2,19.4,5.7,19.8,6.2,19.8z"/>
	<path d="M4.8,7.3h5.6c0.6,0,1-0.5,1-1V3.4c0-0.6-0.5-1-1-1H4.8c-0.6,0-1,0.5-1,1v2.8C3.8,6.8,4.3,7.3,4.8,7.3z M5.9,4.5h3.5v0.7
		H5.9V4.5z"/>
	<path d="M21.6,7.3h5.6c0.6,0,1-0.5,1-1V3.4c0-0.6-0.5-1-1-1h-5.6c-0.6,0-1,0.5-1,1v2.8C20.5,6.8,21,7.3,21.6,7.3z M22.6,4.5h3.5
		v0.7h-3.5V4.5z"/>
</g>
</svg>
