<?xml version="1.0" encoding="utf-8"?>
<!-- Generator: Adobe Illustrator 19.2.1, SVG Export Plug-In . SVG Version: 6.00 Build 0)  -->
<svg version="1.1" id="Layer_1" xmlns="http://www.w3.org/2000/svg" xmlns:xlink="http://www.w3.org/1999/xlink" x="0px" y="0px"
	 viewBox="0 0 60 60" style="enable-background:new 0 0 60 60;" xml:space="preserve">
<g>
	<path d="M57,14.5H3c-1.1,0-2,0.9-2,2v37.8c0,1.1,0.9,2,2,2h54c1.1,0,2-0.9,2-2V16.5C59,15.4,58.1,14.5,57,14.5z M55,52.3H5V18.5H55
		V52.3z"/>
	<path d="M38.1,37.4h10.8c1.1,0,2-0.9,2-2c0-1.1-0.9-2-2-2H38.1c-1.1,0-2,0.9-2,2C36.1,36.5,37,37.4,38.1,37.4z"/>
	<path d="M11.1,37.4h3.4v3.4c0,1.1,0.9,2,2,2s2-0.9,2-2v-3.4h3.4c1.1,0,2-0.9,2-2c0-1.1-0.9-2-2-2h-3.4V30c0-1.1-0.9-2-2-2
		s-2,0.9-2,2v3.4h-3.4c-1.1,0-2,0.9-2,2C9.1,36.5,10,37.4,11.1,37.4z"/>
	<path d="M8.4,13.1h10.8c1.1,0,2-0.9,2-2V5.7c0-1.1-0.9-2-2-2H8.4c-1.1,0-2,0.9-2,2v5.4C6.4,12.2,7.3,13.1,8.4,13.1z M10.4,7.7h6.7
		v1.3h-6.7V7.7z"/>
	<path d="M40.8,13.1h10.8c1.1,0,2-0.9,2-2V5.7c0-1.1-0.9-2-2-2H40.8c-1.1,0-2,0.9-2,2v5.4C38.8,12.2,39.7,13.1,40.8,13.1z M42.8,7.7
		h6.7v1.3h-6.7V7.7z"/>
</g>
</svg>
