<?xml version="1.0" encoding="utf-8"?>
<!-- Generator: Adobe Illustrator 19.2.1, SVG Export Plug-In . SVG Version: 6.00 Build 0)  -->
<svg version="1.1" id="Layer_1" xmlns="http://www.w3.org/2000/svg" xmlns:xlink="http://www.w3.org/1999/xlink" x="0px" y="0px"
	 viewBox="0 0 24 24" style="enable-background:new 0 0 24 24;" xml:space="preserve">
<g>
	<path d="M22,6.3H2C1.6,6.3,1.3,6.6,1.3,7v14c0,0.4,0.3,0.8,0.8,0.8h20c0.4,0,0.8-0.3,0.8-0.8V7C22.8,6.6,22.4,6.3,22,6.3z
		 M21.3,20.3H2.8V7.8h18.5V20.3z"/>
	<path d="M15,14.8h4c0.4,0,0.8-0.3,0.8-0.8s-0.3-0.8-0.8-0.8h-4c-0.4,0-0.8,0.3-0.8,0.8S14.6,14.8,15,14.8z"/>
	<path d="M5,14.8h1.3V16c0,0.4,0.3,0.8,0.8,0.8s0.8-0.3,0.8-0.8v-1.3H9c0.4,0,0.8-0.3,0.8-0.8S9.4,13.3,9,13.3H7.8V12
		c0-0.4-0.3-0.8-0.8-0.8S6.3,11.6,6.3,12v1.3H5c-0.4,0-0.8,0.3-0.8,0.8S4.6,14.8,5,14.8z"/>
	<path d="M4,5.8h4c0.4,0,0.8-0.3,0.8-0.8V3c0-0.4-0.3-0.8-0.8-0.8H4C3.6,2.3,3.3,2.6,3.3,3v2C3.3,5.4,3.6,5.8,4,5.8z M4.8,3.8h2.5
		v0.5H4.8V3.8z"/>
	<path d="M16,5.8h4c0.4,0,0.8-0.3,0.8-0.8V3c0-0.4-0.3-0.8-0.8-0.8h-4c-0.4,0-0.8,0.3-0.8,0.8v2C15.3,5.4,15.6,5.8,16,5.8z
		 M16.8,3.8h2.5v0.5h-2.5V3.8z"/>
</g>
</svg>
