<?xml version="1.0" encoding="utf-8"?>
<!-- Generator: Adobe Illustrator 19.2.1, SVG Export Plug-In . SVG Version: 6.00 Build 0)  -->
<svg version="1.1" id="Layer_1" xmlns="http://www.w3.org/2000/svg" xmlns:xlink="http://www.w3.org/1999/xlink" x="0px" y="0px"
	 viewBox="0 0 16 16" style="enable-background:new 0 0 16 16;" xml:space="preserve">
<path d="M15,8c0-3.9-3.1-7-7-7S1,4.1,1,8s3.1,7,7,7c0.3,0,0.6,0,0.9-0.1c0,0,0,0,0,0c0.1,0,0.1,0,0.2,0C12.4,14.4,15,11.5,15,8z
	 M13.7,6.1L6,13.7c-0.4-0.1-0.7-0.3-1.1-0.5L13.2,5C13.4,5.4,13.6,5.8,13.7,6.1z M11.1,2.8L2.8,11c-0.2-0.3-0.4-0.7-0.5-1.1L10,2.3
	C10.4,2.5,10.8,2.6,11.1,2.8z M8.9,2.1L2,8.8C2,8.5,2,8.3,2,8C2,7.7,2,7.4,2,7.2l5.2-5.1c0,0,0-0.1,0.1-0.1C7.6,2,7.8,2,8,2
	C8.3,2,8.6,2,8.9,2.1z M5.4,2.6L2.7,5.2C3.3,4.1,4.2,3.2,5.4,2.6z M3.3,11.8l8.6-8.4c0.3,0.2,0.5,0.5,0.8,0.8l-8.6,8.4
	C3.8,12.4,3.6,12.1,3.3,11.8z M7.1,14L14,7.3c0,0.2,0,0.5,0,0.7c0,0.3,0,0.6-0.1,0.9L8.7,14c-0.2,0-0.5,0-0.7,0
	C7.7,14,7.4,14,7.1,14z M10.7,13.4l2.5-2.4C12.7,12,11.8,12.8,10.7,13.4z"/>
</svg>
