<?xml version="1.0" encoding="utf-8"?>
<!-- Generator: Adobe Illustrator 19.2.1, SVG Export Plug-In . SVG Version: 6.00 Build 0)  -->
<svg version="1.1" id="Layer_1" xmlns="http://www.w3.org/2000/svg" xmlns:xlink="http://www.w3.org/1999/xlink" x="0px" y="0px"
	 viewBox="0 0 32 32" style="enable-background:new 0 0 32 32;" xml:space="preserve">
<path d="M31,16c0-8.3-6.7-15-15-15S1,7.7,1,16s6.7,15,15,15c0.6,0,1.2-0.1,1.8-0.1c0,0,0.1,0,0.1,0c0.1,0,0.3,0,0.4-0.1
	C25.5,29.7,31,23.5,31,16z M28.3,12L11.8,28.2c-0.8-0.3-1.6-0.6-2.3-1.1L27.2,9.7C27.7,10.4,28,11.2,28.3,12z M22.6,4.9L4.8,22.4
	C4.4,21.7,4,20.9,3.8,20L20.3,3.9C21.1,4.1,21.9,4.5,22.6,4.9z M17.9,3.3L3.2,17.6c-0.1-0.5-0.1-1.1-0.1-1.6c0-0.6,0.1-1.2,0.1-1.8
	L14.5,3.3c0,0,0.1-0.1,0.1-0.2c0.5-0.1,0.9-0.1,1.4-0.1C16.7,3.1,17.3,3.2,17.9,3.3z M10.3,4.4L4.6,10C5.9,7.6,7.9,5.6,10.3,4.4z
	 M6,24.2l18.3-18C25,6.7,25.5,7.3,26,7.9l-18.3,18C7.1,25.4,6.5,24.8,6,24.2z M14.2,28.8l14.7-14.3c0.1,0.5,0.1,1,0.1,1.6
	c0,0.7-0.1,1.3-0.2,1.9L17.5,28.8c-0.5,0.1-1,0.1-1.5,0.1C15.4,28.9,14.8,28.8,14.2,28.8z M21.9,27.5l5.4-5.2
	C26,24.5,24.2,26.3,21.9,27.5z"/>
</svg>
