<?xml version="1.0" encoding="utf-8"?>
<!-- Generator: Adobe Illustrator 19.2.1, SVG Export Plug-In . SVG Version: 6.00 Build 0)  -->
<svg version="1.1" id="Layer_1" xmlns="http://www.w3.org/2000/svg" xmlns:xlink="http://www.w3.org/1999/xlink" x="0px" y="0px"
	 viewBox="0 0 24 24" style="enable-background:new 0 0 24 24;" xml:space="preserve">
<g>
	<path d="M7,9.3c-1.3,0-2.3,0.8-2.6,2H1v1.5h3.4c0.3,1.2,1.4,2,2.6,2c1.5,0,2.8-1.2,2.8-2.8S8.5,9.3,7,9.3z M7,13.3
		c-0.7,0-1.3-0.6-1.3-1.3s0.6-1.3,1.3-1.3s1.3,0.6,1.3,1.3S7.7,13.3,7,13.3z"/>
	<path d="M23,11.3h-3.4c-0.3-1.2-1.4-2-2.6-2c-0.6,0-1.1,0.2-1.5,0.5l0,0l-4-3.3l-1,1.2l4,3.3c-0.2,0.4-0.3,0.7-0.3,1.1
		c0,1.5,1.2,2.8,2.8,2.8c1.3,0,2.3-0.8,2.6-2H23V11.3z M17,13.3c-0.7,0-1.3-0.6-1.3-1.3s0.6-1.3,1.3-1.3s1.3,0.6,1.3,1.3
		S17.7,13.3,17,13.3z"/>
</g>
</svg>
