<?xml version="1.0" encoding="utf-8"?>
<!-- Generator: Adobe Illustrator 19.2.1, SVG Export Plug-In . SVG Version: 6.00 Build 0)  -->
<svg version="1.1" id="Layer_1" xmlns="http://www.w3.org/2000/svg" xmlns:xlink="http://www.w3.org/1999/xlink" x="0px" y="0px"
	 viewBox="0 0 16 16" style="enable-background:new 0 0 16 16;" xml:space="preserve">
<g>
	<path d="M4.8,6.8C4,6.8,3.4,7.3,3.1,8.1H1v1h2.1c0.2,0.7,0.9,1.3,1.7,1.3c1,0,1.8-0.8,1.8-1.8S5.8,6.8,4.8,6.8z M4.8,9.3
		C4.4,9.3,4,9,4,8.6c0-0.4,0.4-0.8,0.8-0.8c0.4,0,0.8,0.4,0.8,0.8C5.6,9,5.3,9.3,4.8,9.3z"/>
	<path d="M15,8.1h-2.1c-0.2-0.7-0.9-1.3-1.7-1.3c-0.4,0-0.7,0.1-1,0.3l0,0L7.7,5L7.1,5.7l2.5,2.1C9.5,8,9.4,8.3,9.4,8.6
		c0,1,0.8,1.8,1.8,1.8c0.8,0,1.5-0.5,1.7-1.3H15V8.1z M11.2,9.3c-0.4,0-0.8-0.4-0.8-0.8c0-0.4,0.4-0.8,0.8-0.8S12,8.1,12,8.6
		C12,9,11.6,9.3,11.2,9.3z"/>
</g>
</svg>
