<?xml version="1.0" encoding="utf-8"?>
<!-- Generator: Adobe Illustrator 19.2.1, SVG Export Plug-In . SVG Version: 6.00 Build 0)  -->
<svg version="1.1" id="Layer_1" xmlns="http://www.w3.org/2000/svg" xmlns:xlink="http://www.w3.org/1999/xlink" x="0px" y="0px"
	 viewBox="0 0 24 24" style="enable-background:new 0 0 24 24;" xml:space="preserve">
<g>
	<path d="M17,3.8h6V2.3h-6c-2.1,0-3.8,1.7-3.8,3.8c0,1.2,0.6,2.3,1.5,3c-0.9,0.7-1.5,1.8-1.5,3c0,1.2,0.6,2.3,1.5,3
		c-0.9,0.7-1.5,1.8-1.5,3c0,2.1,1.7,3.8,3.8,3.8h6v-1.5h-6c-1.2,0-2.3-1-2.3-2.3s1-2.3,2.3-2.3c0.4,0,0.8-0.3,0.8-0.8
		s-0.3-0.8-0.8-0.8c-1.2,0-2.3-1-2.3-2.3c0-1.2,1-2.3,2.3-2.3c0.4,0,0.8-0.3,0.8-0.8S17.4,8.3,17,8.3c-1.2,0-2.3-1-2.3-2.3
		S15.8,3.8,17,3.8z"/>
	<path d="M10.8,6c0-2.1-1.7-3.8-3.8-3.8H1v1.5h6c1.2,0,2.3,1,2.3,2.3S8.2,8.3,7,8.3C6.6,8.3,6.3,8.6,6.3,9S6.6,9.8,7,9.8
		c1.2,0,2.3,1,2.3,2.3c0,1.2-1,2.3-2.3,2.3c-0.4,0-0.8,0.3-0.8,0.8s0.3,0.8,0.8,0.8c1.2,0,2.3,1,2.3,2.3s-1,2.3-2.3,2.3H1v1.5h6
		c2.1,0,3.8-1.7,3.8-3.8c0-1.2-0.6-2.3-1.5-3c0.9-0.7,1.5-1.8,1.5-3c0-1.2-0.6-2.3-1.5-3C10.1,8.3,10.8,7.2,10.8,6z"/>
</g>
</svg>
