<?xml version="1.0" encoding="utf-8"?>
<!-- Generator: Adobe Illustrator 19.2.1, SVG Export Plug-In . SVG Version: 6.00 Build 0)  -->
<svg version="1.1" id="Layer_1" xmlns="http://www.w3.org/2000/svg" xmlns:xlink="http://www.w3.org/1999/xlink" x="0px" y="0px"
	 viewBox="0 0 24 24" style="enable-background:new 0 0 24 24;" xml:space="preserve">
<g>
	<path d="M5.8,14.3c-1.3,0-2.3-1-2.3-2.3s1-2.3,2.3-2.3s2.3,1,2.3,2.3S7,14.3,5.8,14.3z M5.8,10.7c-0.7,0-1.3,0.6-1.3,1.3
		c0,0.7,0.6,1.3,1.3,1.3s1.3-0.6,1.3-1.3C7.1,11.3,6.5,10.7,5.8,10.7z"/>
</g>
<g>
	<rect x="5.3" y="10.1" transform="matrix(0.707 -0.7072 0.7072 0.707 -6.7932 7.6013)" width="1" height="3.8"/>
</g>
<g>
	<path d="M12,14.3c-1.3,0-2.3-1-2.3-2.3s1-2.3,2.3-2.3s2.3,1,2.3,2.3S13.3,14.3,12,14.3z M12,10.7c-0.7,0-1.3,0.6-1.3,1.3
		c0,0.7,0.6,1.3,1.3,1.3c0.7,0,1.3-0.6,1.3-1.3C13.3,11.3,12.7,10.7,12,10.7z"/>
</g>
<g>
	<rect x="11.5" y="10.1" transform="matrix(0.7071 -0.7071 0.7071 0.7071 -4.9705 11.9998)" width="1" height="3.8"/>
</g>
<g>
	<path d="M18.2,14.3c-1.3,0-2.3-1-2.3-2.3s1-2.3,2.3-2.3s2.3,1,2.3,2.3S19.5,14.3,18.2,14.3z M18.2,10.7c-0.7,0-1.3,0.6-1.3,1.3
		c0,0.7,0.6,1.3,1.3,1.3c0.7,0,1.3-0.6,1.3-1.3C19.5,11.3,18.9,10.7,18.2,10.7z"/>
</g>
<g>
	<rect x="17.7" y="10.1" transform="matrix(0.707 -0.7072 0.7072 0.707 -3.1476 16.4016)" width="1" height="3.8"/>
</g>
<g>
	<path d="M22,18.8H2c-0.4,0-0.8-0.3-0.8-0.8V6c0-0.4,0.3-0.8,0.8-0.8h20c0.4,0,0.8,0.3,0.8,0.8v12C22.8,18.4,22.4,18.8,22,18.8z
		 M2.8,17.3h18.5V6.8H2.8V17.3z"/>
</g>
</svg>
