<?xml version="1.0" encoding="utf-8"?>
<!-- Generator: Adobe Illustrator 19.2.1, SVG Export Plug-In . SVG Version: 6.00 Build 0)  -->
<svg version="1.1" id="Layer_1" xmlns="http://www.w3.org/2000/svg" xmlns:xlink="http://www.w3.org/1999/xlink" x="0px" y="0px"
	 viewBox="0 0 32 32" style="enable-background:new 0 0 32 32;" xml:space="preserve">
<g>
	<path d="M22.8,3.7H2.2c-0.6,0-1,0.5-1,1v19.3c0,0.6,0.5,1,1,1h1.7v3.1c0,0.6,0.5,1,1,1h12.4c0.6,0,1-0.5,1-1v-3.1h4.5
		c0.6,0,1-0.5,1-1V4.8C23.9,4.2,23.4,3.7,22.8,3.7z M6,25.1h0.7v2.1H6V25.1z M16.3,27.2H8.7v-2.1h7.6V27.2z M21.8,23.1h-4.5H4.9H3.2
		V5.8h18.6V23.1z"/>
	<path d="M31.1,13.4H28V6.9c0-0.6-0.5-1-1-1c-0.6,0-1,0.5-1,1v15c0,0.6,0.5,1,1,1c0.6,0,1-0.5,1-1v-6.5h3.1V13.4z"/>
	<path d="M6.3,11.3h6.9c0.6,0,1-0.5,1-1c0-0.6-0.5-1-1-1H6.3c-0.6,0-1,0.5-1,1C5.3,10.9,5.7,11.3,6.3,11.3z"/>
	<path d="M6.3,15.5h6.9c0.6,0,1-0.5,1-1c0-0.6-0.5-1-1-1H6.3c-0.6,0-1,0.5-1,1C5.3,15,5.7,15.5,6.3,15.5z"/>
	<path d="M6.3,19.6h6.9c0.6,0,1-0.5,1-1s-0.5-1-1-1H6.3c-0.6,0-1,0.5-1,1S5.7,19.6,6.3,19.6z"/>
</g>
</svg>
