<?xml version="1.0" encoding="utf-8"?>
<!-- Generator: Adobe Illustrator 19.2.1, SVG Export Plug-In . SVG Version: 6.00 Build 0)  -->
<svg version="1.1" id="Layer_1" xmlns="http://www.w3.org/2000/svg" xmlns:xlink="http://www.w3.org/1999/xlink" x="0px" y="0px"
	 viewBox="0 0 24 24" style="enable-background:new 0 0 24 24;" xml:space="preserve">
<g>
	<circle cx="16" cy="7.3" r="0.9"/>
	<circle cx="13.3" cy="7.3" r="0.9"/>
	<circle cx="10.7" cy="7.3" r="0.9"/>
	<circle cx="8" cy="7.3" r="0.9"/>
	<g>
		<polygon points="14.2,12 10.8,12 10.8,16.1 12,16.1 12,18.5 15.3,14.5 13.2,14.5 		"/>
		<path d="M21.8,12c0-5-3.8-9.2-8.8-9.7V1h-2v1.3C6.1,2.8,2.3,7,2.3,12s3.8,9.2,8.8,9.7V23h2v-1.3C17.9,21.2,21.8,17,21.8,12z
			 M12,3.8c3.6,0,6.6,2.3,7.8,5.5H4.2C5.4,6.1,8.4,3.8,12,3.8z M12,20.3c-4.5,0-8.3-3.7-8.3-8.3c0-0.4,0-0.8,0.1-1.3h16.3
			c0.1,0.4,0.1,0.8,0.1,1.3C20.3,16.5,16.5,20.3,12,20.3z"/>
	</g>
</g>
</svg>
