<?xml version="1.0" encoding="utf-8"?>
<!-- Generator: Adobe Illustrator 19.2.1, SVG Export Plug-In . SVG Version: 6.00 Build 0)  -->
<svg version="1.1" id="Layer_1" xmlns="http://www.w3.org/2000/svg" xmlns:xlink="http://www.w3.org/1999/xlink" x="0px" y="0px"
	 viewBox="0 0 16 16" style="enable-background:new 0 0 16 16;" xml:space="preserve">
<path d="M14.4,6.9H8.5V4h2.2v0.8c0,0.3,0.2,0.5,0.5,0.5s0.5-0.2,0.5-0.5V4h0.8v-1h-4V1h-1v2.1h-4v1h0.8v0.8c0,0.3,0.2,0.5,0.5,0.5
	c0.3,0,0.5-0.2,0.5-0.5V4h2.2v2.9H1.6v1h1.4v0.8c0,0.3,0.2,0.5,0.5,0.5S4,8.9,4,8.6V7.8h3.5V15h1V7.8H12v0.8c0,0.3,0.2,0.5,0.5,0.5
	c0.3,0,0.5-0.2,0.5-0.5V7.8h1.4V6.9z"/>
</svg>
