<?xml version="1.0" encoding="utf-8"?>
<!-- Generator: Adobe Illustrator 19.2.1, SVG Export Plug-In . SVG Version: 6.00 Build 0)  -->
<svg version="1.1" id="Layer_1" xmlns="http://www.w3.org/2000/svg" xmlns:xlink="http://www.w3.org/1999/xlink" x="0px" y="0px"
	 viewBox="0 0 16 16" style="enable-background:new 0 0 16 16;" xml:space="preserve">
<g>
	<path d="M14.5,4.3h-13C1.2,4.3,1,4.5,1,4.7v9.1c0,0.3,0.2,0.5,0.5,0.5h13c0.3,0,0.5-0.2,0.5-0.5V4.7C15,4.5,14.8,4.3,14.5,4.3z
		 M14,13.4H2V5.2h12V13.4z"/>
	<path d="M10,9.8h2.6c0.3,0,0.5-0.2,0.5-0.5c0-0.3-0.2-0.5-0.5-0.5H10C9.7,8.8,9.5,9,9.5,9.3C9.5,9.6,9.7,9.8,10,9.8z"/>
	<path d="M3.4,9.8h0.8v0.8c0,0.3,0.2,0.5,0.5,0.5c0.3,0,0.5-0.2,0.5-0.5V9.8H6c0.3,0,0.5-0.2,0.5-0.5C6.5,9,6.3,8.8,6,8.8H5.2V8
		c0-0.3-0.2-0.5-0.5-0.5C4.5,7.5,4.3,7.7,4.3,8v0.8H3.4C3.2,8.8,3,9,3,9.3C3,9.6,3.2,9.8,3.4,9.8z"/>
	<path d="M2.8,3.9h2.6c0.3,0,0.5-0.2,0.5-0.5V2.1c0-0.3-0.2-0.5-0.5-0.5H2.8c-0.3,0-0.5,0.2-0.5,0.5v1.3C2.3,3.7,2.5,3.9,2.8,3.9z
		 M3.3,2.6h1.6V3H3.3V2.6z"/>
	<path d="M10.6,3.9h2.6c0.3,0,0.5-0.2,0.5-0.5V2.1c0-0.3-0.2-0.5-0.5-0.5h-2.6c-0.3,0-0.5,0.2-0.5,0.5v1.3
		C10.1,3.7,10.3,3.9,10.6,3.9z M11.1,2.6h1.6V3h-1.6V2.6z"/>
</g>
</svg>
