<?xml version="1.0" encoding="utf-8"?>
<!-- Generator: Adobe Illustrator 20.0.0, SVG Export Plug-In . SVG Version: 6.00 Build 0)  -->
<svg version="1.1" id="Layer_1" xmlns="http://www.w3.org/2000/svg" xmlns:xlink="http://www.w3.org/1999/xlink" x="0px" y="0px"
	 viewBox="0 0 242.4 155.7" style="enable-background:new 0 0 242.4 155.7;" xml:space="preserve">
<style type="text/css">
	.st0{fill:#BE1E2D;}
	.st1{fill:#18447C;}
	.st2{fill:none;}
</style>
<path class="st0" d="M45.7,17.1l6.4-17h3.8l6.3,17h-4.9l-1-3.3h-4.5l-1,3.3H45.7z M53.9,5l-1.6,5.7h3.1L53.9,5z"/>
<polygon class="st0" points="79.7,17.1 79.7,8.2 76.8,14.5 74.3,14.5 71.5,8.2 71.5,17.1 66.8,17.1 66.8,0.1 71.9,0.1 75.6,8.1 
	79.3,0.1 84.3,0.1 84.3,17.1 "/>
<polygon class="st0" points="102.3,13.1 102.3,17.1 90.1,17.1 90.1,0.1 102.1,0.1 102.1,4.2 94.8,4.2 94.8,6.6 101,6.6 101,10.4 
	94.8,10.4 94.8,13.1 "/>
<path class="st0" d="M108.3,17.1v-17h7.8c0.8,0,1.6,0.2,2.3,0.5c0.7,0.3,1.3,0.8,1.8,1.3c0.5,0.6,0.9,1.2,1.2,1.9
	c0.3,0.7,0.4,1.4,0.4,2.1c0,1-0.2,1.9-0.6,2.8c-0.4,0.9-1,1.6-1.8,2.1l3.8,6.3H118l-3.2-5.2H113v5.2H108.3z M113,7.8h3
	c0.3,0,0.6-0.2,0.8-0.5c0.2-0.3,0.4-0.8,0.4-1.3c0-0.6-0.1-1-0.4-1.4c-0.3-0.3-0.6-0.5-0.9-0.5H113V7.8z"/>
<rect x="127.7" y="0.1" class="st0" width="4.7" height="17"/>
<path class="st0" d="M137.7,8.5c0-1,0.2-2.1,0.6-3.1c0.4-1,0.9-1.9,1.6-2.7c0.7-0.8,1.6-1.4,2.6-1.9c1-0.5,2.2-0.7,3.5-0.7
	c1.5,0,2.8,0.3,4,1c1.1,0.7,2,1.6,2.5,2.7l-3.6,2.5c-0.1-0.4-0.3-0.8-0.6-1c-0.2-0.3-0.5-0.5-0.8-0.6c-0.3-0.2-0.6-0.3-0.9-0.3
	c-0.3-0.1-0.6-0.1-0.8-0.1c-0.6,0-1.1,0.1-1.5,0.4c-0.4,0.3-0.8,0.6-1.1,1C143,6,142.8,6.5,142.6,7c-0.1,0.5-0.2,1.1-0.2,1.6
	c0,0.6,0.1,1.2,0.2,1.7c0.2,0.5,0.4,1,0.7,1.4c0.3,0.4,0.7,0.7,1.1,1c0.4,0.2,0.9,0.4,1.5,0.4c0.3,0,0.6,0,0.8-0.1
	c0.3-0.1,0.6-0.2,0.8-0.4c0.3-0.2,0.5-0.4,0.7-0.6c0.2-0.3,0.4-0.6,0.5-1l3.8,2.3c-0.2,0.6-0.6,1.2-1.1,1.7c-0.5,0.5-1,0.9-1.7,1.2
	c-0.6,0.3-1.3,0.6-2,0.8c-0.7,0.2-1.4,0.3-2.1,0.3c-1.2,0-2.3-0.3-3.3-0.8s-1.8-1.2-2.6-2c-0.7-0.8-1.3-1.8-1.7-2.8
	C137.9,10.6,137.7,9.6,137.7,8.5"/>
<path class="st0" d="M155.8,17.1l6.4-17h3.8l6.3,17h-4.9l-1-3.3h-4.5l-1,3.3H155.8z M164,5l-1.6,5.7h3.1L164,5z"/>
<polygon class="st0" points="181.6,8.8 181.6,17.1 176.9,17.1 176.9,0.1 180.6,0.1 187.4,8.8 187.4,0.1 192.1,0.1 192.1,17.1 
	188.4,17.1 "/>
<path class="st1" d="M26.5,155.5l6.4-17h3.8l6.3,17H38l-1-3.3h-4.5l-1,3.3H26.5z M34.8,143.3l-1.6,5.7h3.1L34.8,143.3z"/>
<path class="st1" d="M56.9,144c-0.5-0.3-1-0.5-1.5-0.8c-0.4-0.2-0.9-0.4-1.5-0.5c-0.5-0.2-1.1-0.3-1.6-0.3c-0.4,0-0.7,0.1-1,0.2
	c-0.2,0.1-0.4,0.3-0.4,0.6c0,0.2,0.1,0.4,0.2,0.6c0.1,0.1,0.4,0.3,0.6,0.4c0.3,0.1,0.6,0.2,1,0.3c0.4,0.1,0.8,0.2,1.3,0.4
	c0.8,0.2,1.5,0.5,2.1,0.8c0.6,0.3,1.2,0.6,1.6,1c0.4,0.4,0.8,0.9,1,1.4c0.2,0.6,0.4,1.2,0.4,2c0,1-0.2,1.9-0.6,2.6
	c-0.4,0.7-0.9,1.3-1.5,1.7c-0.6,0.4-1.3,0.7-2.1,0.9c-0.8,0.2-1.6,0.3-2.3,0.3c-0.6,0-1.3,0-1.9-0.1c-0.7-0.1-1.3-0.2-2-0.4
	c-0.6-0.2-1.3-0.4-1.9-0.6c-0.6-0.2-1.2-0.5-1.7-0.8l2-4.1c0.6,0.4,1.1,0.7,1.8,0.9c0.5,0.2,1.1,0.5,1.7,0.6c0.6,0.2,1.3,0.3,2,0.3
	c0.5,0,0.9-0.1,1.1-0.2c0.2-0.1,0.3-0.3,0.3-0.5c0-0.2-0.1-0.4-0.3-0.6c-0.2-0.2-0.5-0.3-0.8-0.4c-0.4-0.1-0.8-0.3-1.2-0.4
	c-0.5-0.1-0.9-0.3-1.5-0.5c-0.8-0.3-1.4-0.5-1.9-0.8c-0.5-0.3-1-0.6-1.3-1c-0.4-0.4-0.6-0.8-0.8-1.3c-0.2-0.5-0.3-1-0.3-1.7
	c0-0.9,0.2-1.8,0.5-2.5c0.3-0.7,0.8-1.3,1.4-1.8c0.6-0.5,1.3-0.8,2-1.1c0.8-0.2,1.6-0.4,2.4-0.4c0.6,0,1.2,0.1,1.8,0.2
	c0.6,0.1,1.2,0.3,1.7,0.5c0.6,0.2,1.1,0.4,1.5,0.6c0.5,0.2,0.9,0.4,1.3,0.6L56.9,144z"/>
<path class="st1" d="M74.1,144c-0.5-0.3-1-0.5-1.5-0.8c-0.4-0.2-0.9-0.4-1.5-0.5c-0.5-0.2-1.1-0.3-1.6-0.3c-0.4,0-0.7,0.1-1,0.2
	c-0.2,0.1-0.4,0.3-0.4,0.6c0,0.2,0.1,0.4,0.2,0.6c0.1,0.1,0.4,0.3,0.6,0.4c0.3,0.1,0.6,0.2,1,0.3c0.4,0.1,0.8,0.2,1.3,0.4
	c0.8,0.2,1.5,0.5,2.1,0.8c0.6,0.3,1.2,0.6,1.6,1c0.4,0.4,0.8,0.9,1,1.4c0.2,0.6,0.4,1.2,0.4,2c0,1-0.2,1.9-0.6,2.6
	c-0.4,0.7-0.9,1.3-1.5,1.7c-0.6,0.4-1.3,0.7-2.1,0.9c-0.8,0.2-1.6,0.3-2.3,0.3c-0.6,0-1.3,0-1.9-0.1c-0.7-0.1-1.3-0.2-2-0.4
	c-0.6-0.2-1.3-0.4-1.9-0.6c-0.6-0.2-1.2-0.5-1.7-0.8l2-4.1c0.6,0.4,1.1,0.7,1.8,0.9c0.5,0.2,1.1,0.5,1.7,0.6c0.6,0.2,1.3,0.3,2,0.3
	c0.5,0,0.9-0.1,1.1-0.2c0.2-0.1,0.3-0.3,0.3-0.5c0-0.2-0.1-0.4-0.3-0.6s-0.5-0.3-0.8-0.4c-0.4-0.1-0.8-0.3-1.2-0.4
	c-0.5-0.1-0.9-0.3-1.5-0.5c-0.8-0.3-1.4-0.5-1.9-0.8c-0.5-0.3-1-0.6-1.3-1c-0.4-0.4-0.6-0.8-0.8-1.3c-0.2-0.5-0.3-1-0.3-1.7
	c0-0.9,0.2-1.8,0.5-2.5c0.3-0.7,0.8-1.3,1.4-1.8c0.6-0.5,1.3-0.8,2-1.1c0.8-0.2,1.6-0.4,2.4-0.4c0.6,0,1.2,0.1,1.8,0.2
	c0.6,0.1,1.2,0.3,1.7,0.5c0.6,0.2,1.1,0.4,1.5,0.6c0.5,0.2,0.9,0.4,1.3,0.6L74.1,144z"/>
<path class="st1" d="M88.7,155.6c-1.2,0-2.3-0.2-3.3-0.7c-1-0.5-1.9-1.1-2.6-2c-0.7-0.8-1.3-1.7-1.7-2.8c-0.4-1-0.6-2.1-0.6-3.2
	c0-1.1,0.2-2.2,0.6-3.2c0.4-1,1-2,1.7-2.7c0.7-0.8,1.6-1.4,2.6-1.9c1-0.5,2.1-0.7,3.3-0.7c1.2,0,2.3,0.2,3.3,0.7
	c1,0.5,1.9,1.2,2.6,2c0.7,0.8,1.3,1.7,1.6,2.8c0.4,1,0.6,2.1,0.6,3.2c0,1.1-0.2,2.2-0.6,3.2c-0.4,1-1,1.9-1.7,2.7
	c-0.7,0.8-1.6,1.4-2.6,1.9C91,155.4,89.9,155.6,88.7,155.6 M85.3,147c0,0.6,0.1,1.1,0.2,1.7c0.1,0.5,0.3,1,0.6,1.4
	c0.3,0.4,0.6,0.8,1.1,1c0.4,0.3,0.9,0.4,1.5,0.4c0.6,0,1.1-0.1,1.5-0.4c0.4-0.3,0.8-0.6,1.1-1c0.3-0.4,0.5-0.9,0.6-1.5
	c0.1-0.5,0.2-1.1,0.2-1.7c0-0.6-0.1-1.1-0.2-1.7c-0.1-0.5-0.4-1-0.6-1.4c-0.3-0.4-0.6-0.7-1.1-1c-0.4-0.2-0.9-0.4-1.5-0.4
	c-0.6,0-1.1,0.1-1.5,0.4c-0.4,0.3-0.8,0.6-1.1,1s-0.5,0.9-0.6,1.4C85.3,145.9,85.3,146.4,85.3,147"/>
<path class="st1" d="M100.8,146.8c0-1,0.2-2.1,0.6-3.1c0.4-1,0.9-1.9,1.6-2.7c0.7-0.8,1.6-1.4,2.6-1.9c1-0.5,2.2-0.7,3.5-0.7
	c1.5,0,2.8,0.3,4,1c1.1,0.7,2,1.6,2.5,2.7l-3.6,2.5c-0.1-0.4-0.3-0.8-0.6-1c-0.2-0.3-0.5-0.5-0.8-0.6c-0.3-0.2-0.6-0.3-0.9-0.3
	c-0.3-0.1-0.6-0.1-0.8-0.1c-0.6,0-1.1,0.1-1.5,0.4c-0.4,0.3-0.8,0.6-1.1,1c-0.3,0.4-0.5,0.9-0.6,1.4c-0.1,0.5-0.2,1.1-0.2,1.6
	c0,0.6,0.1,1.2,0.2,1.7c0.2,0.5,0.4,1,0.7,1.4c0.3,0.4,0.7,0.7,1.1,1c0.4,0.2,0.9,0.4,1.5,0.4c0.3,0,0.6,0,0.8-0.1
	c0.3-0.1,0.6-0.2,0.8-0.4c0.3-0.2,0.5-0.4,0.7-0.6c0.2-0.3,0.4-0.6,0.5-1l3.8,2.3c-0.2,0.6-0.6,1.2-1.1,1.7c-0.5,0.5-1,0.9-1.7,1.2
	c-0.6,0.3-1.3,0.6-2,0.8c-0.7,0.2-1.4,0.3-2.1,0.3c-1.2,0-2.3-0.3-3.3-0.8c-1-0.5-1.8-1.2-2.6-2c-0.7-0.8-1.3-1.8-1.7-2.8
	C101,149,100.8,147.9,100.8,146.8"/>
<rect x="120.4" y="138.4" class="st1" width="4.7" height="17"/>
<path class="st1" d="M129.2,155.5l6.4-17h3.8l6.3,17h-4.9l-1-3.3h-4.5l-1,3.3H129.2z M137.4,143.3l-1.6,5.7h3.1L137.4,143.3z"/>
<polygon class="st1" points="161.6,142.5 156.7,142.5 156.7,155.5 152,155.5 152,142.5 147.1,142.5 147.1,138.4 161.6,138.4 "/>
<rect x="166.2" y="138.4" class="st1" width="4.7" height="17"/>
<path class="st1" d="M183.4,155.6c-1.2,0-2.3-0.2-3.3-0.7c-1-0.5-1.9-1.1-2.6-2c-0.7-0.8-1.3-1.7-1.7-2.8c-0.4-1-0.6-2.1-0.6-3.2
	c0-1.1,0.2-2.2,0.6-3.2c0.4-1,1-2,1.7-2.7c0.7-0.8,1.6-1.4,2.6-1.9c1-0.5,2.1-0.7,3.3-0.7c1.2,0,2.3,0.2,3.3,0.7
	c1,0.5,1.9,1.2,2.6,2c0.7,0.8,1.3,1.7,1.6,2.8c0.4,1,0.6,2.1,0.6,3.2c0,1.1-0.2,2.2-0.6,3.2c-0.4,1-1,1.9-1.7,2.7
	c-0.7,0.8-1.6,1.4-2.6,1.9C185.7,155.4,184.6,155.6,183.4,155.6 M180,147c0,0.6,0.1,1.1,0.2,1.7c0.1,0.5,0.3,1,0.6,1.4
	c0.3,0.4,0.6,0.8,1.1,1c0.4,0.3,0.9,0.4,1.5,0.4c0.6,0,1.1-0.1,1.5-0.4c0.4-0.3,0.8-0.6,1.1-1c0.3-0.4,0.5-0.9,0.6-1.5
	c0.1-0.5,0.2-1.1,0.2-1.7c0-0.6-0.1-1.1-0.2-1.7c-0.1-0.5-0.4-1-0.6-1.4c-0.3-0.4-0.6-0.7-1.1-1c-0.4-0.2-0.9-0.4-1.5-0.4
	c-0.6,0-1.1,0.1-1.5,0.4c-0.4,0.3-0.8,0.6-1.1,1s-0.5,0.9-0.6,1.4C180.1,145.9,180,146.4,180,147"/>
<polygon class="st1" points="200.7,147.1 200.7,155.5 196.1,155.5 196.1,138.4 199.7,138.4 206.5,147.1 206.5,138.4 211.2,138.4 
	211.2,155.5 207.5,155.5 "/>
<g>
	<path class="st2" d="M174.7,63.2v10.9c1.2-0.5,2.5-1,3.7-1.6V38l-2.2,1.3l-18.6,10.9l-6.1,3.3v9.7H174.7z"/>
	<path class="st2" d="M87.9,96.8c1,2.6,1.5,5.3,1.7,8.1c0.7-0.2,1.5-0.4,2.2-0.6L85,86.8c-0.8,0.4-1.7,0.8-2.5,1.1
		c0.1,0.2,0.3,0.3,0.4,0.5C85.1,90.9,86.7,93.6,87.9,96.8z"/>
	<path class="st2" d="M23.8,102.5c0.7-0.8,1.1-2.2,1.1-4.3c0-2.1-0.4-3.5-1.3-4.3c-0.9-0.8-1.7-1.2-2.6-1.2h-7v10.9h7.4
		C22.3,103.7,23.1,103.3,23.8,102.5z"/>
	<path class="st2" d="M219.3,92.8h-8.5v7c1.4-0.4,2.8-0.7,4.2-1.1c2.7-0.7,5.3-1.4,8-2.1c-0.2-0.9-0.6-1.7-1.1-2.3
		C221,93.3,220.1,92.8,219.3,92.8z"/>
	<path class="st2" d="M210.8,103.6v0.2h8.8c0.9,0,1.7-0.5,2.4-1.4c0.4-0.5,0.7-1.1,0.8-1.7c-2.3,0.6-4.6,1.2-7,1.7
		C214.2,102.7,212.5,103.1,210.8,103.6z"/>
	<path class="st2" d="M147.2,114.2c3.7-0.7,7.3-1.4,11-2.1v-26L147.2,114.2z"/>
	<path class="st0" d="M14.1,59.8h8.4c2.5,0,4.8-0.5,6.9-1.5c2.1-1,3.9-2.3,5.3-4c1.5-1.7,2.6-3.6,3.4-5.7c0.8-2.1,1.2-4.3,1.2-6.6
		c0-2.2-0.4-4.3-1.3-6.5c-0.9-2.1-2.1-4-3.6-5.7c-1.5-1.7-3.3-3-5.4-4c-2.1-1-4.4-1.6-6.9-1.6H0v51.2h14.1V59.8z M14.1,36.5h7.1
		c0.9,0,1.7,0.4,2.6,1.2c0.9,0.8,1.3,2.2,1.3,4.3c0,2.1-0.4,3.5-1.1,4.3c-0.7,0.8-1.6,1.2-2.4,1.2h-7.4V36.5z"/>
	<path class="st0" d="M46.5,68.3c1.9,2.3,4.3,4.1,7.2,5.5c2.9,1.4,6.4,2.1,10.5,2.1c3.9,0,7.4-0.6,10.3-1.9c2.9-1.3,5.3-3.1,7.2-5.3
		c1.9-2.3,3.3-4.9,4.3-8c0.9-3.1,1.4-6.4,1.4-10V24.3H73.3v26.3c0,1.7-0.2,3.3-0.5,4.8c-0.3,1.5-0.9,2.9-1.6,4.1
		c-0.7,1.2-1.7,2.1-2.8,2.8c-1.2,0.7-2.5,1.1-4.2,1.1c-1.6,0-3-0.3-4.1-1c-1.1-0.7-2.1-1.6-2.8-2.8c-0.7-1.2-1.3-2.5-1.6-4.1
		c-0.3-1.6-0.5-3.2-0.5-4.9V24.3H41.1v26.3c0,3.4,0.4,6.6,1.3,9.7C43.3,63.4,44.6,66,46.5,68.3z"/>
	<path class="st0" d="M127.9,63.2c1.6-0.8,3.2-1.6,4.7-2.5l1.7-1c-0.3-2.4-1.1-4.4-2.4-6c-1.7-2.1-4-3.6-7-4.5
		c2.5-1.1,4.3-2.8,5.5-4.9c1.2-2.2,1.8-4.5,1.8-6.9c0-1.6-0.3-3.2-0.8-4.8c-0.6-1.6-1.3-3-2.3-4.2c-1-1.2-2.2-2.2-3.7-3
		c-1.4-0.8-3.1-1.2-4.8-1.2H91v51.2h13.1c4.8-2.4,9.6-4.8,14.3-7.3L127.9,63.2z M105,36.3h10c0.9,0,1.7,0.3,2.4,0.9
		c0.7,0.6,1,1.6,1,3c0,1.6-0.4,2.6-1.2,3.2c-0.8,0.5-1.7,0.8-2.6,0.8H105V36.3z M105,63.7v-8.6h11.6c1.1,0,1.9,0.4,2.6,1.3
		c0.7,0.8,1,1.9,1,3.1c0,1.3-0.4,2.4-1.2,3.1c-0.8,0.7-1.8,1.1-2.9,1.1H105z"/>
	<path class="st0" d="M123.2,74.7c2.2-0.5,4.2-1.3,5.9-2.3c1.7-1.1,3-2.4,4-4.1c0.9-1.5,1.4-3.4,1.4-5.5l-0.5,0.3
		c-1.6,0.9-3.2,1.6-4.8,2.5l-9.6,4.9c-3.4,1.7-6.8,3.4-10.2,5h6.8C118.6,75.5,121,75.2,123.2,74.7z"/>
	<polygon class="st0" points="151.5,24.3 137.5,24.3 137.5,58 151.5,50.1 	"/>
	<path class="st0" d="M171.4,75.5l2.2-0.9c0.4-0.2,0.7-0.3,1.1-0.5V63.2h-23.2v-9.7l-12.8,7l-1.2,0.7v14.3H171.4z"/>
	<polygon class="st0" points="181.3,32.2 183.6,30.7 192.5,24.9 192.5,24.3 178.4,24.3 178.4,33.9 179,33.6 	"/>
	<path class="st0" d="M183.2,35.2l-2.3,1.4l-2.5,1.4v34.6c0.1,0,0.2-0.1,0.3-0.1l5-2.3l8.8-4V29.3l-7,4.4L183.2,35.2z"/>
	<path class="st1" d="M179.9,75.2c-0.2,0.1-0.4,0.2-0.6,0.3h13.2v-5.8l-7.6,3.3L179.9,75.2z"/>
	<path class="st1" d="M207.6,63l-2.5,1.1l-4,1.8c0.5,0.6,1,1.2,1.5,1.8c2.2,2.5,4.9,4.5,8,6c3.1,1.5,6.5,2.3,10.3,2.3
		c2.1,0,4.3-0.3,6.6-0.8c2.2-0.5,4.4-1.3,6.3-2.3c2-1,3.7-2.3,5.3-3.7c1.5-1.5,2.7-3.2,3.4-5l-11.3-6.8c-0.4,1.2-1,2.1-1.7,2.9
		c-0.7,0.8-1.6,1.4-2.5,1.9c-0.9,0.5-1.9,0.9-2.9,1.1c-1,0.2-2,0.3-2.9,0.3c-1.8,0-3.4-0.4-4.9-1.1c-1.1-0.6-2.1-1.3-2.9-2.2
		l-3.2,1.6L207.6,63z"/>
	<path class="st0" d="M206.2,59.8l2.5-1.2l2.6-1.3c-0.4-0.7-0.7-1.4-0.9-2.2c-0.5-1.6-0.8-3.3-0.8-5.1c0-1.6,0.2-3.2,0.7-4.8
		c0.4-1.6,1.1-3,2.1-4.3c0.9-1.3,2.1-2.3,3.6-3.1c1.4-0.8,3.2-1.2,5.1-1.2c0.9,0,1.9,0.1,2.9,0.3c1,0.2,2,0.5,2.9,1
		c0.9,0.5,1.8,1.1,2.6,1.9c0.8,0.8,1.4,1.8,1.9,3.1l10.6-7.6c-1.8-3.4-4.4-6.1-8-8.1c-3.6-2-7.8-3.1-12.7-3.1
		c-4.1,0-7.7,0.7-10.9,2.2c-3.2,1.5-5.9,3.4-8.1,5.8c-2.2,2.4-3.9,5.1-5.1,8.1c-1.2,3-1.7,6.1-1.7,9.2c0,3.3,0.6,6.5,1.8,9.6
		c0.5,1.4,1.2,2.6,1.9,3.9l4.5-2.1L206.2,59.8z"/>
	<path class="st0" d="M30.1,107.6l7.9-3c0.8-2.1,1.1-4.2,1.1-6.3c0-2.2-0.4-4.3-1.3-6.4c-0.9-2.1-2-4-3.6-5.7s-3.3-3-5.4-4
		c-2.1-1-4.4-1.5-6.9-1.5H0v37.3c6.7-2.2,13.4-4.3,20-6.7L30.1,107.6z M14,92.8h7c0.9,0,1.7,0.4,2.6,1.2c0.9,0.8,1.3,2.2,1.3,4.3
		c0,2.1-0.4,3.5-1.1,4.3c-0.7,0.8-1.5,1.2-2.4,1.2H14V92.8z"/>
	<path class="st0" d="M10.4,121c1.2-0.1,2.4-0.3,3.6-0.4V116h8.3c2.5,0,4.8-0.5,6.9-1.5c2.1-1,3.9-2.3,5.3-4
		c1.2-1.3,2.1-2.8,2.9-4.4l-6.9,2.5l-10.2,3.4c-6.7,2.3-13.5,4.3-20.3,6.4v3.6c1.7-0.1,3.3-0.4,5-0.5L10.4,121z"/>
	<path class="st1" d="M14,126.3v-5.1c-1.2,0.1-2.3,0.3-3.5,0.4L5,122.1c-1.7,0.2-3.4,0.3-5,0.5v3.3l3,0.2
		C6.7,126.2,10.4,126.2,14,126.3z"/>
	<path class="st1" d="M0,126.6v5h14v-4.4c-3.7-0.1-7.4-0.2-11-0.4L0,126.6z"/>
	<path class="st1" d="M54.9,129.8c3,1.5,6.3,2.2,10,2.2c3.6,0,6.9-0.7,9.9-2.2c2.4-1.2,4.6-2.6,6.4-4.4c-10.2,0.8-20.3,1.4-30.5,1.7
		C52,128.2,53.4,129.1,54.9,129.8z"/>
	<path class="st0" d="M42.2,115.7c0.1,0.1,0.1,0.3,0.2,0.4c4.4-0.8,8.7-1.8,13.1-2.7c-0.3-0.7-0.6-1.4-0.8-2.2
		c-0.5-1.6-0.7-3.3-0.7-5c0-1.7,0.2-3.3,0.6-4.9c0.2-0.7,0.4-1.3,0.7-1.9c-4.9,1.9-9.7,3.8-14.6,5.6l-0.2,0.1c0,0.3,0,0.7,0,1
		C40.4,109.3,41,112.6,42.2,115.7z"/>
	<path class="st0" d="M73.3,96.8c0.9,1.2,1.6,2.6,2.1,4.2c0.5,1.6,0.7,3.3,0.7,5c0,0.8-0.1,1.7-0.2,2.5c4.5-1.2,9.1-2.4,13.6-3.7
		c-0.2-2.7-0.7-5.4-1.7-8.1c-1.2-3.1-2.8-5.9-4.9-8.3c-0.1-0.2-0.3-0.3-0.4-0.5c-4.4,1.9-8.7,3.8-13.1,5.7c0.2,0.1,0.3,0.1,0.5,0.2
		C71.2,94.6,72.4,95.6,73.3,96.8z"/>
	<path class="st1" d="M89.6,106.6c-4.6,1.2-9.3,2.4-13.9,3.6c-0.1,0.3-0.1,0.6-0.2,0.9c-0.4,1.6-1.1,3.1-2,4.4
		c-0.9,1.3-2,2.3-3.4,3.1c-1.4,0.8-3.1,1.2-5,1.2c-1.9,0-3.6-0.4-4.9-1.2c-1.4-0.8-2.5-1.8-3.4-3c-0.2-0.3-0.5-0.7-0.7-1
		c-4.4,0.9-8.8,1.8-13.2,2.6c1.1,2.6,2.6,4.9,4.4,7c0.6,0.7,1.3,1.3,1.9,1.9c11.4-0.5,22.8-1.3,34.1-2.4c1.9-2.2,3.4-4.7,4.5-7.5
		C89,113,89.6,109.8,89.6,106.6z"/>
	<path class="st0" d="M56.6,96.9c0.9-1.3,2.1-2.3,3.4-3.1c1.4-0.8,3-1.2,4.9-1.2c0.6,0,1.2,0.1,1.8,0.1c4.8-2.1,9.5-4.2,14.3-6.4
		c-1.7-1.6-3.7-2.9-5.8-4c-3-1.5-6.3-2.2-10-2.2c-3.6,0-6.9,0.7-9.9,2.1c-3,1.4-5.6,3.3-7.8,5.7c-2.2,2.4-3.9,5.1-5.1,8.2
		c-0.9,2.4-1.5,4.8-1.7,7.3c5.3-2.1,10.6-4.2,15.8-6.4C56.4,97.2,56.5,97,56.6,96.9z"/>
	<path class="st0" d="M138.8,80.6h-12.9l-4,14c4.6-1.6,9.2-3.2,13.8-4.9L138.8,80.6z"/>
	<path class="st0" d="M104,100.5L97.8,81c-4.3,2-8.6,3.9-12.9,5.9l6.8,17.4C95.9,103,100,101.8,104,100.5z"/>
	<path class="st1" d="M158.2,83.9l-3.9,1.6c-1.7,0.7-3.4,1.3-5.2,1.9l-5.2,1.9c-0.6,0.2-1.2,0.4-1.7,0.6l-8.1,25.7l-3.7-10.6
		l4.3-12.4c-7.9,2.8-15.9,5.4-23.9,7.9l1.5,4.5l-3.5,10.6l-4.2-13.3c-4,1.2-8.1,2.4-12.2,3.5l6.3,16c6.9-0.8,13.7-1.8,20.5-2.8
		l2.2-5.6l2,4.9c1.1-0.2,2.3-0.4,3.4-0.5c6.8-1.1,13.6-2.3,20.4-3.6l11-28.1V83.9z"/>
	<path class="st0" d="M153.3,83l4.8-2v-0.4h-13.1l-2,6.3l5.1-1.9C149.9,84.3,151.6,83.7,153.3,83z"/>
	<path class="st0" d="M116.9,80.6H104l6.1,18c3.6-1.2,7.2-2.4,10.8-3.6L116.9,80.6z"/>
	<path class="st0" d="M82.5,80.6l1.7,4.4c3.2-1.5,6.3-2.9,9.4-4.4H82.5z"/>
	<path class="st1" d="M124.3,120.6l4.4,11h11.7l5.7-14.4c-6.3,1.1-12.6,2.1-18.8,3C126.2,120.4,125.2,120.5,124.3,120.6z"/>
	<path class="st1" d="M102.5,131.6h11.7l4-10.1c-6.2,0.8-12.5,1.6-18.7,2.3L102.5,131.6z"/>
	<path class="st1" d="M158.2,131.6h36.4v-12.2h-22.4v-7.1c-4.7,0.9-9.3,1.8-14,2.7V131.6z"/>
	<path class="st1" d="M190.8,111.4v-3c-4.6,1-9.2,2-13.8,3H190.8z"/>
	<path class="st1" d="M159.2,83.5l-1,2.6v26c10.9-2.2,21.8-4.5,32.6-7.2V100h-18.6v-7.2h21.7V80.6h-27.4l-2.1,0.8L159.2,83.5z"/>
	<polygon points="158.2,81 159.2,80.6 158.2,80.6 	"/>
	<polygon points="158.2,86.1 159.2,83.5 158.2,83.9 	"/>
	<path class="st1" d="M222,102.3c-0.7,1-1.5,1.4-2.4,1.4h-8.8v-0.2c-4.7,1.2-9.3,2.3-14,3.4v24.6h14V116h5.3l9,15.7h15.8L230,112.9
		c2.3-1.6,4.1-3.7,5.4-6.3c1.3-2.6,1.9-5.3,1.9-8.3c0-0.5,0-1.1-0.1-1.6c-4.8,1.4-9.6,2.7-14.4,3.9
		C222.7,101.2,222.4,101.8,222,102.3z"/>
	<path class="st1" d="M210.8,92.8h8.5c0.9,0,1.7,0.5,2.6,1.4c0.6,0.6,0.9,1.4,1.1,2.3c4.5-1.2,9-2.5,13.4-3.9
		c-0.1-0.3-0.2-0.6-0.3-0.9c-0.9-2.1-2-4-3.6-5.7c-1.5-1.7-3.3-3-5.4-4c-2.1-1-4.4-1.5-6.9-1.5h-23.4v22.8c4.7-1.2,9.4-2.4,14-3.6
		V92.8z"/>
</g>
</svg>
