<?xml version="1.0" encoding="utf-8"?>
<!-- Generator: Adobe Illustrator 19.2.1, SVG Export Plug-In . SVG Version: 6.00 Build 0)  -->
<svg version="1.1" id="Layer_1" xmlns="http://www.w3.org/2000/svg" xmlns:xlink="http://www.w3.org/1999/xlink" x="0px" y="0px"
	 viewBox="0 0 32 32" style="enable-background:new 0 0 32 32;" xml:space="preserve">
<style type="text/css">
	.st0{fill:#010101;}
</style>
<g>
	<path class="st0" d="M7.3,19.4c1.8,0,3.2-1.4,3.2-3.2c0-1.8-1.4-3.2-3.2-3.2c-1.8,0-3.2,1.4-3.2,3.2C4.2,18,5.6,19.4,7.3,19.4z
		 M5.6,16.2c0-0.3,0.1-0.5,0.2-0.7L8,17.9C7.8,18,7.6,18,7.4,18C6.3,18,5.6,17.2,5.6,16.2z M9.1,16.2c0,0.3-0.1,0.5-0.2,0.7
		l-2.3-2.3c0.2-0.1,0.4-0.2,0.7-0.2C8.3,14.4,9.1,15.2,9.1,16.2z"/>
	<path class="st0" d="M16,19.4c1.8,0,3.2-1.4,3.2-3.2c0-1.8-1.4-3.2-3.2-3.2s-3.2,1.4-3.2,3.2C12.8,18,14.2,19.4,16,19.4z
		 M14.2,16.2c0-0.3,0.1-0.5,0.2-0.7l2.3,2.3C16.5,18,16.3,18,16.1,18C15,18,14.2,17.2,14.2,16.2z M17.8,16.2c0,0.3-0.1,0.5-0.2,0.7
		l-2.3-2.3c0.2-0.1,0.4-0.2,0.7-0.2C17,14.4,17.8,15.2,17.8,16.2z"/>
	<path class="st0" d="M24.7,19.4c1.8,0,3.2-1.4,3.2-3.2c0-1.8-1.4-3.2-3.2-3.2c-1.8,0-3.2,1.4-3.2,3.2C21.5,18,22.9,19.4,24.7,19.4z
		 M22.9,16.2c0-0.3,0.1-0.5,0.2-0.7l2.3,2.3C25.2,18,24.9,18,24.7,18C23.7,18,22.9,17.2,22.9,16.2z M26.4,16.2
		c0,0.3-0.1,0.5-0.2,0.7L24,14.5c0.2-0.1,0.4-0.2,0.7-0.2C25.7,14.4,26.4,15.2,26.4,16.2z"/>
	<path class="st0" d="M30,6.8H2c-0.6,0-1,0.5-1,1v16.8c0,0.6,0.5,1,1,1H30c0.6,0,1-0.5,1-1V7.8C31,7.3,30.5,6.8,30,6.8z M28.9,23.5
		H3.1V8.9h25.9V23.5z"/>
</g>
</svg>
