<?xml version="1.0" encoding="utf-8"?>
<!-- Generator: Adobe Illustrator 19.2.1, SVG Export Plug-In . SVG Version: 6.00 Build 0)  -->
<svg version="1.1" id="Layer_1" xmlns="http://www.w3.org/2000/svg" xmlns:xlink="http://www.w3.org/1999/xlink" x="0px" y="0px"
	 viewBox="0 0 60 60" style="enable-background:new 0 0 60 60;" xml:space="preserve">
<g>
	<path d="M43.1,5.8h-40c-1.1,0-2,0.9-2,2v37.3c0,1.1,0.9,2,2,2h3.3v6c0,1.1,0.9,2,2,2h24c1.1,0,2-0.9,2-2v-6h8.7c1.1,0,2-0.9,2-2
		V7.8C45.1,6.7,44.2,5.8,43.1,5.8z M10.5,47.2h1.3v4h-1.3V47.2z M30.5,51.2H15.8v-4h14.7V51.2z M41.1,43.2h-8.7h-24H5.1V9.8h36V43.2
		z"/>
	<path d="M59.1,24.5h-6V12c0-1.1-0.9-2-2-2s-2,0.9-2,2v29c0,1.1,0.9,2,2,2s2-0.9,2-2V28.5h6V24.5z"/>
	<path d="M11.1,20.5h13.3c1.1,0,2-0.9,2-2s-0.9-2-2-2H11.1c-1.1,0-2,0.9-2,2S10,20.5,11.1,20.5z"/>
	<path d="M11.1,28.5h13.3c1.1,0,2-0.9,2-2s-0.9-2-2-2H11.1c-1.1,0-2,0.9-2,2S10,28.5,11.1,28.5z"/>
	<path d="M11.1,36.5h13.3c1.1,0,2-0.9,2-2s-0.9-2-2-2H11.1c-1.1,0-2,0.9-2,2S10,36.5,11.1,36.5z"/>
</g>
</svg>
