<?xml version="1.0" encoding="utf-8"?>
<!-- Generator: Adobe Illustrator 19.2.1, SVG Export Plug-In . SVG Version: 6.00 Build 0)  -->
<svg version="1.1" id="Layer_1" xmlns="http://www.w3.org/2000/svg" xmlns:xlink="http://www.w3.org/1999/xlink" x="0px" y="0px"
	 viewBox="0 0 16 16" style="enable-background:new 0 0 16 16;" xml:space="preserve">
<path d="M14.7,14.1c-2.9-1.4-3-7.3-3-7.4c0-0.3-0.2-0.5-0.5-0.5h-1c0.4-0.2,0.7-0.4,0.9-0.8c0.4,0.3,0.9,0.4,1.4,0.4
	c1.3,0,2.4-1.1,2.4-2.4S13.9,1,12.6,1c-0.7,0-1.3,0.3-1.7,0.7C10.3,1.3,9.7,1,9,1C8.2,1,7.5,1.3,7,1.8C6.7,2.2,6.4,2.6,6.3,3.1
	c-0.8,0.3-1.4,1.1-1.4,2c0,0.4,0.1,0.8,0.3,1.1H4.7c-0.3,0-0.5,0.2-0.5,0.5c0,5.6-2.9,7.3-3,7.4C1.1,14.2,1,14.4,1,14.6
	C1.1,14.9,1.3,15,1.5,15l11,0c2.4,0,2.4,0,2.5-0.4C15,14.4,14.9,14.2,14.7,14.1z M12.6,2C13.4,2,14,2.6,14,3.4s-0.7,1.5-1.5,1.5
	c-0.3,0-0.7-0.1-0.9-0.4c0.1-0.3,0.1-0.5,0.1-0.8c0-0.5-0.1-0.9-0.3-1.3c0,0,0,0,0,0C11.7,2.2,12.1,2,12.6,2z M5.9,5.1
	c0-0.6,0.5-1.1,1.1-1.1c0.2,0,0.5,0.1,0.7,0.2c0.2,0.2,0.5,0.1,0.7-0.1c0.2-0.2,0.1-0.5-0.1-0.7C8,3.2,7.7,3,7.4,3
	c0.1-0.2,0.2-0.3,0.3-0.5C8,2.2,8.5,2,9,2c1,0,1.8,0.8,1.8,1.8S10,5.6,9,5.6C8.5,5.6,8,5.4,7.7,5C7.5,4.8,7.2,4.8,7,5
	C6.8,5.2,6.8,5.5,7,5.7c0.2,0.2,0.4,0.4,0.7,0.5H7C6.4,6.2,5.9,5.7,5.9,5.1z M2.8,14c0.2-0.3,0.5-0.6,0.8-1h5.7
	c0.3,0,0.5-0.2,0.5-0.5c0-0.3-0.2-0.5-0.5-0.5H4.1c0.2-0.3,0.3-0.7,0.4-1c0.1,0-0.5,0-0.4,0h2.6c0.3,0,0.5-0.2,0.5-0.5
	c0-0.3-0.2-0.5-0.5-0.5H4.8C5,9.3,5.2,8.3,5.2,7.2h5.6c0.1,1.3,0.4,4.9,2.3,6.8C10.7,14,5.8,14,2.8,14z"/>
</svg>
