<?xml version="1.0" encoding="utf-8"?>
<!-- Generator: Adobe Illustrator 19.2.1, SVG Export Plug-In . SVG Version: 6.00 Build 0)  -->
<svg version="1.1" id="Layer_1" xmlns="http://www.w3.org/2000/svg" xmlns:xlink="http://www.w3.org/1999/xlink" x="0px" y="0px"
	 viewBox="0 0 32 32" style="enable-background:new 0 0 32 32;" xml:space="preserve">
<path d="M30.4,29C24.2,26.1,24,13.3,24,13.2c0-0.6-0.5-1-1-1h-2.2c0.8-0.4,1.4-1,2-1.6c0.9,0.6,1.9,0.9,3,0.9c2.9,0,5.2-2.3,5.2-5.2
	S28.7,1,25.8,1c-1.4,0-2.7,0.6-3.7,1.6c-1.1-1-2.4-1.6-4-1.6c-1.6,0-3.1,0.6-4.2,1.8c-0.7,0.8-1.2,1.7-1.5,2.7c-1.7,0.6-3,2.3-3,4.2
	c0,0.9,0.3,1.7,0.7,2.4H9c-0.6,0-1,0.5-1,1C8,25.1,1.8,28.9,1.5,29c-0.4,0.2-0.6,0.7-0.5,1.2C1.2,30.7,1.6,31,2,31l23.5,0
	c5.2,0,5.2,0,5.4-0.8C31.1,29.7,30.8,29.2,30.4,29z M25.8,3.1c1.7,0,3.1,1.4,3.1,3.1s-1.4,3.1-3.1,3.1c-0.7,0-1.5-0.3-2-0.8
	C23.9,8.1,24,7.5,24,6.9c0-1-0.3-1.9-0.7-2.7c0,0,0.1,0,0.1-0.1C24,3.5,24.9,3.1,25.8,3.1z M11.5,9.7c0-1.3,1.1-2.4,2.4-2.4
	c0.5,0,1,0.2,1.5,0.5c0.5,0.3,1.1,0.3,1.5-0.2c0.3-0.5,0.3-1.1-0.2-1.5c-0.6-0.4-1.3-0.7-2-0.8c0.2-0.4,0.4-0.7,0.7-1
	c0.7-0.7,1.7-1.2,2.7-1.2c2.1,0,3.8,1.7,3.8,3.8s-1.7,3.8-3.8,3.8c-1,0-2-0.4-2.7-1.1c-0.4-0.4-1.1-0.4-1.5,0
	c-0.4,0.4-0.4,1.1,0,1.5c0.4,0.4,1,0.8,1.5,1.1h-1.4C12.6,12.2,11.5,11.1,11.5,9.7z M4.9,28.9c0.5-0.6,1.1-1.3,1.6-2.1h12.3
	c0.6,0,1-0.5,1-1c0-0.6-0.5-1-1-1H7.7c0.3-0.7,0.6-1.4,0.9-2.2c0.1,0.1-1.1,0.1-1,0.1h5.6c0.6,0,1-0.5,1-1c0-0.6-0.5-1-1-1h-4
	c0.5-1.8,0.8-3.9,0.9-6.3H22c0.2,2.8,0.9,10.5,4.9,14.7C21.7,28.9,11.3,28.9,4.9,28.9z"/>
</svg>
