<?xml version="1.0" encoding="utf-8"?>
<!-- Generator: Adobe Illustrator 19.2.1, SVG Export Plug-In . SVG Version: 6.00 Build 0)  -->
<svg version="1.1" id="Layer_1" xmlns="http://www.w3.org/2000/svg" xmlns:xlink="http://www.w3.org/1999/xlink" x="0px" y="0px"
	 viewBox="0 0 32 32" style="enable-background:new 0 0 32 32;" xml:space="preserve">
<path d="M29.6,13.6H17V7.5h4.8v1.7c0,0.6,0.5,1,1,1s1-0.5,1-1V7.5h1.7v-2H17V1h-2v4.4H6.5v2h1.7v1.7c0,0.6,0.5,1,1,1s1-0.5,1-1V7.5
	H15v6.1H2.4v2h3.1v1.7c0,0.6,0.5,1,1,1s1-0.5,1-1v-1.7H15V31h2V15.7h7.5v1.7c0,0.6,0.5,1,1,1s1-0.5,1-1v-1.7h3.1V13.6z"/>
</svg>
