<?xml version="1.0" encoding="utf-8"?>
<!-- Generator: Adobe Illustrator 19.2.1, SVG Export Plug-In . SVG Version: 6.00 Build 0)  -->
<svg version="1.1" id="Layer_1" xmlns="http://www.w3.org/2000/svg" xmlns:xlink="http://www.w3.org/1999/xlink" x="0px" y="0px"
	 viewBox="0 0 60 60" style="enable-background:new 0 0 60 60;" xml:space="preserve">
<g>
	<g>
		<path d="M43.2,58.3c-9.1,0-12.3-13.9-15.7-28.7C24.9,18.4,21.9,5.6,16.8,5.6C8.6,5.6,5.6,22.2,5.6,22.4c-0.2,1.1-1.2,1.8-2.3,1.6
			c-1.1-0.2-1.8-1.2-1.6-2.3C1.8,20.9,5.2,1.7,16.8,1.7c8.2,0,11.3,13.2,14.5,27.1c2.8,12,5.9,25.6,11.9,25.6
			c8.4,0,11.2-16.6,11.2-16.8c0.2-1.1,1.2-1.8,2.3-1.7c1.1,0.2,1.8,1.2,1.7,2.3C58.2,39,55.1,58.3,43.2,58.3z"/>
	</g>
	<g>
		<rect x="40.5" y="28" width="7.9" height="4"/>
	</g>
	<g>
		<rect x="53.7" y="28" width="5.3" height="4"/>
	</g>
	<g>
		<rect x="1" y="28" width="5.3" height="4"/>
	</g>
	<g>
		<rect x="24.7" y="28" width="10.5" height="4"/>
	</g>
	<g>
		<rect x="11.5" y="28" width="7.9" height="4"/>
	</g>
</g>
</svg>
