<?xml version="1.0" encoding="utf-8"?>
<!-- Generator: Adobe Illustrator 19.2.1, SVG Export Plug-In . SVG Version: 6.00 Build 0)  -->
<svg version="1.1" id="Layer_1" xmlns="http://www.w3.org/2000/svg" xmlns:xlink="http://www.w3.org/1999/xlink" x="0px" y="0px"
	 viewBox="0 0 24 24" style="enable-background:new 0 0 24 24;" xml:space="preserve">
<g>
	<path d="M17,22.8c-3.4,0-4.7-5.3-6-10.9c-1-4.3-2.1-9.1-4-9.1c-3.1,0-4.2,6.3-4.3,6.4C2.7,9.5,2.3,9.8,1.9,9.7
		C1.5,9.7,1.2,9.3,1.3,8.9C1.3,8.6,2.6,1.3,7,1.3c3.1,0,4.3,5,5.5,10.3c1.1,4.6,2.2,9.7,4.5,9.7c3.2,0,4.2-6.3,4.3-6.4
		c0.1-0.4,0.5-0.7,0.9-0.6c0.4,0.1,0.7,0.4,0.6,0.9C22.7,15.4,21.5,22.8,17,22.8z"/>
</g>
<g>
	<rect x="16" y="11.3" width="3" height="1.5"/>
</g>
<g>
	<rect x="21" y="11.3" width="2" height="1.5"/>
</g>
<g>
	<rect x="1" y="11.3" width="2" height="1.5"/>
</g>
<g>
	<rect x="10" y="11.3" width="4" height="1.5"/>
</g>
<g>
	<rect x="5" y="11.3" width="3" height="1.5"/>
</g>
</svg>
