<?xml version="1.0" encoding="utf-8"?>
<!-- Generator: Adobe Illustrator 19.2.1, SVG Export Plug-In . SVG Version: 6.00 Build 0)  -->
<svg version="1.1" id="Layer_1" xmlns="http://www.w3.org/2000/svg" xmlns:xlink="http://www.w3.org/1999/xlink" x="0px" y="0px"
	 viewBox="0 0 24 24" style="enable-background:new 0 0 24 24;" xml:space="preserve">
<path d="M22.8,12c0-5.9-4.8-10.8-10.8-10.8S1.3,6.1,1.3,12S6.1,22.8,12,22.8c0.4,0,0.9,0,1.3-0.1c0,0,0,0,0.1,0c0.1,0,0.2,0,0.3-0.1
	C18.8,21.8,22.8,17.4,22.8,12z M20.8,9.2L9,20.7c-0.6-0.2-1.1-0.5-1.7-0.8L20,7.5C20.4,8,20.6,8.6,20.8,9.2z M16.7,4.1L4,16.6
	c-0.3-0.5-0.6-1.1-0.8-1.7L15.1,3.3C15.7,3.5,16.2,3.8,16.7,4.1z M13.4,2.9L2.8,13.2c0-0.4-0.1-0.8-0.1-1.2c0-0.4,0-0.9,0.1-1.3
	l8.1-7.8c0,0,0.1-0.1,0.1-0.1c0.3,0,0.7-0.1,1-0.1C12.5,2.8,12.9,2.8,13.4,2.9z M7.9,3.7l-4.1,4C4.7,6,6.2,4.6,7.9,3.7z M4.8,17.8
	L18,5c0.4,0.4,0.8,0.8,1.2,1.2L6.1,19.1C5.6,18.7,5.2,18.3,4.8,17.8z M10.7,21.1l10.5-10.3c0,0.4,0.1,0.7,0.1,1.1
	c0,0.5,0,0.9-0.1,1.4l-8.1,7.8c-0.4,0-0.7,0.1-1.1,0.1C11.5,21.3,11.1,21.2,10.7,21.1z M16.2,20.2l3.9-3.7
	C19.2,18.1,17.8,19.4,16.2,20.2z"/>
</svg>
