<?xml version="1.0" encoding="utf-8"?>
<!-- Generator: Adobe Illustrator 19.2.1, SVG Export Plug-In . SVG Version: 6.00 Build 0)  -->
<svg version="1.1" id="Layer_1" xmlns="http://www.w3.org/2000/svg" xmlns:xlink="http://www.w3.org/1999/xlink" x="0px" y="0px"
	 viewBox="0 0 60 60" style="enable-background:new 0 0 60 60;" xml:space="preserve">
<g>
	<path d="M43.2,8.2H59v-4H43.2c-5.5,0-9.9,4.4-9.9,9.9c0,3.2,1.6,6.1,4,7.9c-2.4,1.8-4,4.7-4,7.9c0,3.2,1.6,6.1,4,7.9
		c-2.4,1.8-4,4.7-4,7.9c0,5.5,4.4,9.9,9.9,9.9H59v-4H43.2c-3.3,0-5.9-2.7-5.9-5.9s2.7-5.9,5.9-5.9c1.1,0,2-0.9,2-2s-0.9-2-2-2
		c-3.3,0-5.9-2.7-5.9-5.9c0-3.3,2.7-5.9,5.9-5.9c1.1,0,2-0.9,2-2c0-1.1-0.9-2-2-2c-3.3,0-5.9-2.7-5.9-5.9S39.9,8.2,43.2,8.2z"/>
	<path d="M26.7,14.2c0-5.5-4.4-9.9-9.9-9.9H1v4h15.8c3.3,0,5.9,2.7,5.9,5.9s-2.7,5.9-5.9,5.9c-1.1,0-2,0.9-2,2c0,1.1,0.9,2,2,2
		c3.3,0,5.9,2.7,5.9,5.9c0,3.3-2.7,5.9-5.9,5.9c-1.1,0-2,0.9-2,2s0.9,2,2,2c3.3,0,5.9,2.7,5.9,5.9s-2.7,5.9-5.9,5.9H1v4h15.8
		c5.5,0,9.9-4.4,9.9-9.9c0-3.2-1.6-6.1-4-7.9c2.4-1.8,4-4.7,4-7.9c0-3.2-1.6-6.1-4-7.9C25.1,20.3,26.7,17.4,26.7,14.2z"/>
</g>
</svg>
